<?xml version="1.0" encoding="UTF-8" standalone="no"?>
<!DOCTYPE svg PUBLIC "-//W3C//DTD SVG 1.1//EN" "http://www.w3.org/Graphics/SVG/1.1/DTD/svg11.dtd">
<svg width="100%" height="100%" viewBox="0 0 300 430" version="1.1" xmlns="http://www.w3.org/2000/svg" style="fill-rule:evenodd;clip-rule:evenodd;stroke-linejoin:round;stroke-miterlimit:2;">
    <g id="Shadows" transform="matrix(1,0,0,1,-100,-35)">
        <g transform="matrix(1,0,0,1,74.8238,19.8831)">
            <g opacity="0.1">
                <g transform="matrix(1,0,0,1,215.822,392.914)">
                    <path d="M0,43.351C-1.285,43.351 -2.401,43.083 -3.316,42.555L-20.021,32.909L-35.68,41.951C-36.599,42.48 -37.713,42.749 -38.993,42.749C-40.27,42.749 -41.383,42.48 -42.303,41.949L-52.832,35.87C-54.196,35.081 -54.482,34.082 -54.482,33.383C-54.482,32.681 -54.197,31.678 -52.837,30.892L-38.177,22.428L-53.877,13.363C-55.23,12.58 -55.521,11.579 -55.524,10.876C-55.521,10.164 -55.23,9.164 -53.875,8.381L-40.741,0.798C-39.827,0.27 -38.714,0.002 -37.431,0C-36.139,0.002 -35.023,0.27 -34.112,0.796L-17.411,10.439L-1.86,1.46C-0.945,0.932 0.171,0.664 1.456,0.664C2.741,0.664 3.855,0.932 4.77,1.458L15.299,7.537C16.66,8.325 16.946,9.328 16.946,10.03C16.946,10.73 16.66,11.731 15.297,12.519L0.745,20.921L16.449,29.987C17.811,30.774 18.096,31.777 18.096,32.48C18.096,33.183 17.811,34.185 16.45,34.972L3.316,42.554C2.402,43.082 1.286,43.351 0,43.351" style="fill-rule:nonzero;"/>
                </g>
            </g>
        </g>
        <g transform="matrix(1,0,0,1,74.8238,19.8831)">
            <g opacity="0.1">
                <g transform="matrix(1,0,0,1,255.392,347.342)">
                    <path d="M0,42.084C-1.278,42.084 -2.392,41.814 -3.311,41.283L-13.84,35.205C-15.204,34.417 -15.49,33.418 -15.49,32.719C-15.49,32.016 -15.204,31.013 -13.843,30.227L37.133,0.796C38.046,0.268 39.162,0 40.449,0C41.736,0 42.852,0.268 43.763,0.795L54.292,6.873C55.652,7.658 55.938,8.662 55.938,9.365C55.938,10.066 55.652,11.068 54.288,11.855L3.313,41.286C2.397,41.815 1.282,42.084 0,42.084" style="fill-rule:nonzero;"/>
                </g>
            </g>
        </g>
        <g transform="matrix(1,0,0,1,74.8238,19.8831)">
            <g opacity="0.1">
                <g transform="matrix(1,0,0,1,101.489,281.369)">
                    <path d="M0,124.011L-68.519,84.453C-70.91,83.072 -70.911,80.834 -68.519,79.453L69.097,-0C71.488,-1.381 75.365,-1.38 77.756,0.002L146.236,39.581C148.627,40.963 148.626,43.202 146.235,44.583L8.661,124.011C6.269,125.392 2.392,125.392 0,124.011" style="fill-rule:nonzero;"/>
                </g>
            </g>
        </g>
    </g>
    <g id="Calculator" transform="matrix(1,0,0,1,-100,-35)">
        <g transform="matrix(1,0,0,1,325.502,407.198)">
            <path d="M0,-347.733C0,-350.481 -0.96,-352.416 -2.514,-353.327C-4.083,-354.245 -17.243,-361.917 -18.848,-362.805C-20.409,-363.67 -22.548,-363.525 -24.907,-362.163L-156.508,-286.183C-161.291,-283.421 -165.168,-276.706 -165.168,-271.183L-165.167,-0.007C-165.167,2.754 -164.197,4.694 -162.63,5.599C-161.063,6.504 -147.975,14.074 -146.443,14.994C-144.872,15.937 -142.682,15.821 -140.26,14.422L-8.659,-61.557C-3.876,-64.318 0.001,-71.034 0.001,-76.557L0,-347.733Z" style="fill:rgb(55,71,79);fill-rule:nonzero;"/>
        </g>
        <g transform="matrix(1,0,0,1,176.582,59.4649)">
            <path d="M0,357.155L-0.001,85.98C-0.001,80.457 3.876,73.741 8.659,70.98L140.26,-5C145.042,-7.762 148.92,-5.523 148.92,-0L148.921,271.176C148.921,276.698 145.044,283.414 140.261,286.176L8.66,362.155C3.877,364.917 0,362.678 0,357.155" style="fill:rgb(55,71,79);fill-rule:nonzero;"/>
        </g>
        <g transform="matrix(1,0,0,1,211.19,406.762)">
            <path d="M0,-39.689C-0.312,-39.865 -0.684,-39.857 -1.083,-39.627L-20.417,-28.458C-21.524,-27.818 -22.421,-25.704 -22.421,-23.734L-22.419,-4.805C-22.418,-3.555 -22.057,-2.665 -21.509,-2.345C-21.194,-2.161 -17.995,-0.327 -17.446,-0.008C-17.131,0.176 -16.755,0.171 -16.352,-0.063L2.982,-11.231C4.09,-11.871 4.988,-13.986 4.987,-15.955L4.985,-34.884C4.984,-36.154 4.61,-37.054 4.047,-37.36C3.738,-37.528 0.555,-39.376 0,-39.689" style="fill:rgb(39,222,191);fill-rule:nonzero;"/>
        </g>
        <g transform="matrix(1,0,0,1,74.8238,19.8831)">
            <g opacity="0.25">
                <g transform="matrix(1,0,0,1,118.973,360.155)">
                    <path d="M0,26.74C-0.02,26.74 -0.03,26.73 -0.05,26.72C-0.6,26.4 -3.8,24.56 -4.12,24.38C-4.66,24.06 -5.03,23.17 -5.03,21.92L-5.03,2.99C-5.03,1.95 -4.78,0.88 -4.38,0L-0.32,2.34C-0.72,3.22 -0.97,4.29 -0.97,5.33L-0.96,24.25C-0.96,25.54 -0.58,26.44 0,26.74" style="fill-rule:nonzero;"/>
                </g>
            </g>
        </g>
        <g transform="matrix(1,0,0,1,74.8238,19.8831)">
            <g opacity="0.5">
                <g transform="matrix(1,0,0,1,140.393,360.005)">
                    <path d="M0,-10.5C-0.31,-10.66 -0.67,-10.64 -1.05,-10.42L-20.38,0.75C-20.91,1.05 -21.39,1.69 -21.74,2.49L-25.8,0.15C-25.44,-0.64 -24.97,-1.28 -24.44,-1.58L-5.11,-12.75C-4.71,-12.98 -4.34,-12.99 -4.03,-12.82C-3.48,-12.51 -0.4,-10.72 0,-10.5" style="fill:white;fill-rule:nonzero;"/>
                </g>
            </g>
        </g>
        <g transform="matrix(1,0,0,1,214.172,380.641)">
            <path d="M0,14.89L-19.333,26.058C-20.441,26.699 -21.339,25.621 -21.339,23.652L-21.342,4.723C-21.342,2.754 -20.444,0.639 -19.337,-0.001L-0.003,-11.17C1.104,-11.809 2.002,-10.732 2.002,-8.763L2.005,10.166C2.005,12.135 1.108,14.25 0,14.89" style="fill:rgb(39,222,191);fill-rule:nonzero;"/>
        </g>
        <g transform="matrix(1,0,0,1,280.235,366.898)">
            <path d="M0,-39.689C-0.312,-39.865 -0.684,-39.857 -1.083,-39.627L-20.416,-28.459C-21.524,-27.819 -22.421,-25.704 -22.421,-23.735L-22.418,-4.806C-22.418,-3.556 -22.056,-2.665 -21.508,-2.345C-21.193,-2.161 -17.994,-0.327 -17.446,-0.008C-17.131,0.176 -16.755,0.171 -16.351,-0.063L2.982,-11.231C4.09,-11.871 4.988,-13.986 4.988,-15.955L4.985,-34.884C4.985,-36.154 4.611,-37.054 4.048,-37.36C3.738,-37.528 0.555,-39.376 0,-39.689" style="fill:rgb(39,222,191);fill-rule:nonzero;"/>
        </g>
        <g transform="matrix(1,0,0,1,74.8238,19.8831)">
            <g opacity="0.25">
                <g transform="matrix(1,0,0,1,188.019,320.292)">
                    <path d="M0,26.74C-0.02,26.74 -0.03,26.73 -0.05,26.72C-0.6,26.4 -3.8,24.56 -4.12,24.38C-4.66,24.06 -5.03,23.17 -5.03,21.92L-5.03,2.99C-5.03,1.95 -4.78,0.88 -4.38,0L-0.32,2.34C-0.72,3.22 -0.97,4.29 -0.97,5.33L-0.96,24.25C-0.96,25.54 -0.58,26.44 0,26.74" style="fill-rule:nonzero;"/>
                </g>
            </g>
        </g>
        <g transform="matrix(1,0,0,1,74.8238,19.8831)">
            <g opacity="0.5">
                <g transform="matrix(1,0,0,1,209.439,320.142)">
                    <path d="M0,-10.5C-0.31,-10.66 -0.67,-10.64 -1.05,-10.42L-20.38,0.75C-20.91,1.05 -21.39,1.69 -21.74,2.49L-25.8,0.15C-25.44,-0.64 -24.97,-1.28 -24.44,-1.58L-5.11,-12.75C-4.71,-12.98 -4.34,-12.99 -4.03,-12.82C-3.48,-12.51 -0.4,-10.72 0,-10.5" style="fill:white;fill-rule:nonzero;"/>
                </g>
            </g>
        </g>
        <g transform="matrix(1,0,0,1,283.218,340.777)">
            <path d="M0,14.89L-19.333,26.059C-20.441,26.699 -21.339,25.621 -21.339,23.653L-21.342,4.723C-21.342,2.754 -20.445,0.64 -19.337,0L-0.003,-11.169C1.104,-11.809 2.002,-10.732 2.002,-8.763L2.005,10.166C2.005,12.136 1.107,14.25 0,14.89" style="fill:rgb(39,222,191);fill-rule:nonzero;"/>
        </g>
        <g transform="matrix(1,0,0,1,314.758,346.967)">
            <path d="M0,-39.689C-0.312,-39.865 -0.684,-39.858 -1.083,-39.627L-20.416,-28.459C-21.524,-27.819 -22.421,-25.704 -22.421,-23.735L-22.418,-4.806C-22.418,-3.556 -22.056,-2.665 -21.508,-2.345C-21.193,-2.161 -17.994,-0.328 -17.446,-0.008C-17.131,0.176 -16.755,0.171 -16.351,-0.063L2.982,-11.231C4.09,-11.871 4.988,-13.986 4.988,-15.956L4.985,-34.884C4.985,-36.155 4.611,-37.054 4.048,-37.36C3.739,-37.529 0.555,-39.376 0,-39.689" style="fill:rgb(39,222,191);fill-rule:nonzero;"/>
        </g>
        <g transform="matrix(1,0,0,1,74.8238,19.8831)">
            <g opacity="0.25">
                <g transform="matrix(1,0,0,1,222.542,300.36)">
                    <path d="M0,26.74C-0.02,26.74 -0.03,26.73 -0.05,26.72C-0.6,26.4 -3.8,24.56 -4.12,24.38C-4.66,24.06 -5.03,23.17 -5.03,21.92L-5.03,2.99C-5.03,1.95 -4.78,0.88 -4.38,0L-0.32,2.34C-0.72,3.22 -0.97,4.29 -0.97,5.33L-0.96,24.25C-0.96,25.54 -0.58,26.44 0,26.74" style="fill-rule:nonzero;"/>
                </g>
            </g>
        </g>
        <g transform="matrix(1,0,0,1,74.8238,19.8831)">
            <g opacity="0.5">
                <g transform="matrix(1,0,0,1,243.962,300.21)">
                    <path d="M0,-10.5C-0.31,-10.66 -0.67,-10.64 -1.05,-10.42L-20.38,0.75C-20.91,1.05 -21.39,1.69 -21.74,2.49L-25.8,0.15C-25.44,-0.64 -24.97,-1.28 -24.44,-1.58L-5.11,-12.75C-4.71,-12.98 -4.34,-12.99 -4.03,-12.82C-3.48,-12.51 -0.4,-10.72 0,-10.5" style="fill:white;fill-rule:nonzero;"/>
                </g>
            </g>
        </g>
        <g transform="matrix(1,0,0,1,317.741,320.845)">
            <path d="M0,14.89L-19.333,26.059C-20.441,26.699 -21.339,25.621 -21.339,23.652L-21.342,4.723C-21.342,2.754 -20.444,0.639 -19.337,-0.001L-0.003,-11.169C1.104,-11.809 2.002,-10.732 2.002,-8.763L2.005,10.166C2.005,12.135 1.108,14.25 0,14.89" style="fill:rgb(39,222,191);fill-rule:nonzero;"/>
        </g>
        <g transform="matrix(1,0,0,1,314.758,307.056)">
            <path d="M0,-39.689C-0.312,-39.865 -0.684,-39.857 -1.082,-39.627L-20.416,-28.459C-21.523,-27.819 -22.421,-25.704 -22.421,-23.735L-22.418,-4.806C-22.418,-3.556 -22.056,-2.665 -21.508,-2.345C-21.193,-2.161 -17.994,-0.327 -17.446,-0.008C-17.131,0.176 -16.755,0.171 -16.351,-0.063L2.982,-11.231C4.09,-11.871 4.988,-13.986 4.988,-15.955L4.985,-34.884C4.985,-36.155 4.611,-37.054 4.048,-37.36C3.739,-37.528 0.555,-39.376 0,-39.689" style="fill:rgb(39,222,191);fill-rule:nonzero;"/>
        </g>
        <g transform="matrix(1,0,0,1,74.8238,19.8831)">
            <g opacity="0.25">
                <g transform="matrix(1,0,0,1,222.542,260.448)">
                    <path d="M0,26.74C-0.02,26.74 -0.03,26.73 -0.05,26.72C-0.6,26.4 -3.8,24.56 -4.12,24.38C-4.66,24.06 -5.03,23.17 -5.03,21.92L-5.03,2.99C-5.03,1.95 -4.78,0.88 -4.38,0L-0.32,2.34C-0.72,3.22 -0.97,4.29 -0.97,5.33L-0.96,24.25C-0.96,25.54 -0.58,26.44 0,26.74" style="fill-rule:nonzero;"/>
                </g>
            </g>
        </g>
        <g transform="matrix(1,0,0,1,74.8238,19.8831)">
            <g opacity="0.5">
                <g transform="matrix(1,0,0,1,243.962,260.299)">
                    <path d="M0,-10.5C-0.31,-10.66 -0.67,-10.64 -1.05,-10.42L-20.38,0.75C-20.91,1.05 -21.39,1.69 -21.74,2.49L-25.8,0.15C-25.44,-0.64 -24.97,-1.28 -24.44,-1.58L-5.11,-12.75C-4.71,-12.98 -4.34,-12.99 -4.03,-12.82C-3.48,-12.51 -0.4,-10.72 0,-10.5" style="fill:white;fill-rule:nonzero;"/>
                </g>
            </g>
        </g>
        <g transform="matrix(1,0,0,1,317.741,280.934)">
            <path d="M0,14.89L-19.333,26.059C-20.441,26.699 -21.339,25.621 -21.339,23.653L-21.342,4.723C-21.342,2.754 -20.444,0.64 -19.337,-0.001L-0.003,-11.169C1.104,-11.809 2.002,-10.732 2.002,-8.763L2.005,10.166C2.005,12.136 1.108,14.25 0,14.89" style="fill:rgb(39,222,191);fill-rule:nonzero;"/>
        </g>
        <g transform="matrix(1,0,0,1,314.758,267.144)">
            <path d="M0,-39.689C-0.312,-39.865 -0.684,-39.857 -1.082,-39.627L-20.416,-28.459C-21.523,-27.819 -22.421,-25.704 -22.421,-23.735L-22.418,-4.806C-22.418,-3.556 -22.056,-2.665 -21.508,-2.345C-21.193,-2.161 -17.994,-0.328 -17.446,-0.008C-17.131,0.176 -16.755,0.171 -16.351,-0.063L2.982,-11.231C4.09,-11.871 4.988,-13.986 4.988,-15.955L4.985,-34.884C4.985,-36.154 4.611,-37.054 4.048,-37.36C3.739,-37.528 0.555,-39.376 0,-39.689" style="fill:rgb(39,222,191);fill-rule:nonzero;"/>
        </g>
        <g transform="matrix(1,0,0,1,74.8238,19.8831)">
            <g opacity="0.25">
                <g transform="matrix(1,0,0,1,222.542,220.538)">
                    <path d="M0,26.74C-0.02,26.74 -0.03,26.73 -0.05,26.72C-0.6,26.4 -3.8,24.56 -4.12,24.38C-4.66,24.06 -5.03,23.17 -5.03,21.92L-5.03,2.99C-5.03,1.95 -4.78,0.88 -4.38,0L-0.32,2.34C-0.72,3.22 -0.97,4.29 -0.97,5.33L-0.96,24.25C-0.96,25.54 -0.58,26.44 0,26.74" style="fill-rule:nonzero;"/>
                </g>
            </g>
        </g>
        <g transform="matrix(1,0,0,1,74.8238,19.8831)">
            <g opacity="0.5">
                <g transform="matrix(1,0,0,1,243.962,220.388)">
                    <path d="M0,-10.5C-0.31,-10.66 -0.67,-10.64 -1.05,-10.42L-20.38,0.75C-20.91,1.05 -21.39,1.69 -21.74,2.49L-25.8,0.15C-25.44,-0.64 -24.97,-1.28 -24.44,-1.58L-5.11,-12.75C-4.71,-12.98 -4.34,-12.99 -4.03,-12.82C-3.48,-12.51 -0.4,-10.72 0,-10.5" style="fill:white;fill-rule:nonzero;"/>
                </g>
            </g>
        </g>
        <g transform="matrix(1,0,0,1,317.741,241.023)">
            <path d="M0,14.89L-19.333,26.059C-20.441,26.699 -21.339,25.621 -21.339,23.653L-21.342,4.723C-21.342,2.754 -20.444,0.64 -19.337,-0.001L-0.003,-11.169C1.104,-11.809 2.002,-10.732 2.002,-8.762L2.005,10.166C2.005,12.136 1.108,14.25 0,14.89" style="fill:rgb(39,222,191);fill-rule:nonzero;"/>
        </g>
        <g transform="matrix(1,0,0,1,314.758,227.233)">
            <path d="M0,-39.689C-0.312,-39.865 -0.684,-39.857 -1.082,-39.627L-20.416,-28.459C-21.523,-27.818 -22.421,-25.704 -22.421,-23.734L-22.418,-4.805C-22.418,-3.555 -22.056,-2.665 -21.508,-2.345C-21.193,-2.161 -17.994,-0.327 -17.446,-0.008C-17.131,0.176 -16.755,0.171 -16.351,-0.063L2.983,-11.231C4.09,-11.871 4.988,-13.986 4.988,-15.955L4.985,-34.884C4.985,-36.154 4.611,-37.054 4.048,-37.36C3.739,-37.528 0.555,-39.376 0,-39.689" style="fill:rgb(39,222,191);fill-rule:nonzero;"/>
        </g>
        <g transform="matrix(1,0,0,1,74.8238,19.8831)">
            <g opacity="0.25">
                <g transform="matrix(1,0,0,1,222.542,180.627)">
                    <path d="M0,26.74C-0.02,26.74 -0.03,26.73 -0.05,26.72C-0.6,26.4 -3.8,24.56 -4.12,24.38C-4.66,24.06 -5.03,23.17 -5.03,21.92L-5.03,2.99C-5.03,1.95 -4.78,0.88 -4.38,0L-0.32,2.34C-0.72,3.22 -0.97,4.29 -0.97,5.33L-0.96,24.25C-0.96,25.54 -0.58,26.44 0,26.74" style="fill-rule:nonzero;"/>
                </g>
            </g>
        </g>
        <g transform="matrix(1,0,0,1,74.8238,19.8831)">
            <g opacity="0.5">
                <g transform="matrix(1,0,0,1,243.962,180.477)">
                    <path d="M0,-10.5C-0.31,-10.66 -0.67,-10.64 -1.05,-10.42L-20.38,0.75C-20.91,1.05 -21.39,1.69 -21.74,2.49L-25.8,0.15C-25.44,-0.64 -24.97,-1.28 -24.44,-1.58L-5.11,-12.75C-4.71,-12.98 -4.34,-12.99 -4.03,-12.82C-3.48,-12.51 -0.4,-10.72 0,-10.5" style="fill:white;fill-rule:nonzero;"/>
                </g>
            </g>
        </g>
        <g transform="matrix(1,0,0,1,317.741,201.112)">
            <path d="M0,14.89L-19.333,26.058C-20.441,26.699 -21.339,25.621 -21.339,23.652L-21.342,4.723C-21.342,2.754 -20.444,0.639 -19.337,-0.001L-0.003,-11.17C1.104,-11.809 2.002,-10.732 2.002,-8.763L2.005,10.166C2.005,12.135 1.108,14.25 0,14.89" style="fill:rgb(39,222,191);fill-rule:nonzero;"/>
        </g>
        <g transform="matrix(1,0,0,1,314.758,187.323)">
            <path d="M0,-39.689C-0.312,-39.865 -0.684,-39.857 -1.082,-39.627L-20.416,-28.459C-21.523,-27.819 -22.421,-25.704 -22.421,-23.735L-22.418,-4.806C-22.418,-3.556 -22.056,-2.665 -21.508,-2.345C-21.193,-2.161 -17.994,-0.327 -17.446,-0.008C-17.131,0.176 -16.755,0.171 -16.351,-0.063L2.982,-11.231C4.09,-11.871 4.988,-13.986 4.988,-15.955L4.985,-34.884C4.985,-36.155 4.611,-37.054 4.048,-37.36C3.739,-37.528 0.555,-39.376 0,-39.689" style="fill:rgb(39,222,191);fill-rule:nonzero;"/>
        </g>
        <g transform="matrix(1,0,0,1,74.8238,19.8831)">
            <g opacity="0.25">
                <g transform="matrix(1,0,0,1,222.542,140.716)">
                    <path d="M0,26.74C-0.02,26.74 -0.03,26.73 -0.05,26.72C-0.6,26.4 -3.8,24.56 -4.12,24.38C-4.66,24.06 -5.03,23.17 -5.03,21.92L-5.03,2.99C-5.03,1.95 -4.78,0.88 -4.38,0L-0.32,2.34C-0.72,3.22 -0.97,4.29 -0.97,5.33L-0.96,24.25C-0.96,25.54 -0.58,26.44 0,26.74" style="fill-rule:nonzero;"/>
                </g>
            </g>
        </g>
        <g transform="matrix(1,0,0,1,74.8238,19.8831)">
            <g opacity="0.5">
                <g transform="matrix(1,0,0,1,243.962,140.566)">
                    <path d="M0,-10.5C-0.31,-10.66 -0.67,-10.64 -1.05,-10.42L-20.38,0.75C-20.91,1.05 -21.39,1.69 -21.74,2.49L-25.8,0.15C-25.44,-0.64 -24.97,-1.28 -24.44,-1.58L-5.11,-12.75C-4.71,-12.98 -4.34,-12.99 -4.03,-12.82C-3.48,-12.51 -0.4,-10.72 0,-10.5" style="fill:white;fill-rule:nonzero;"/>
                </g>
            </g>
        </g>
        <g transform="matrix(1,0,0,1,317.741,161.201)">
            <path d="M0,14.891L-19.333,26.059C-20.441,26.699 -21.339,25.622 -21.339,23.653L-21.342,4.724C-21.342,2.755 -20.444,0.64 -19.337,0L-0.003,-11.169C1.104,-11.808 2.002,-10.731 2.002,-8.762L2.005,10.167C2.005,12.136 1.108,14.251 0,14.891" style="fill:rgb(39,222,191);fill-rule:nonzero;"/>
        </g>
        <g transform="matrix(1,0,0,1,280.235,207.255)">
            <path d="M0,-39.689C-0.312,-39.865 -0.684,-39.857 -1.083,-39.627L-20.416,-28.459C-21.524,-27.819 -22.421,-25.704 -22.421,-23.735L-22.418,-4.806C-22.418,-3.556 -22.056,-2.665 -21.508,-2.345C-21.193,-2.161 -17.994,-0.328 -17.446,-0.008C-17.131,0.176 -16.755,0.171 -16.351,-0.063L2.982,-11.231C4.09,-11.871 4.988,-13.986 4.988,-15.956L4.985,-34.884C4.985,-36.155 4.611,-37.054 4.048,-37.36C3.738,-37.528 0.555,-39.376 0,-39.689" style="fill:rgb(39,222,191);fill-rule:nonzero;"/>
        </g>
        <g transform="matrix(1,0,0,1,74.8238,19.8831)">
            <g opacity="0.25">
                <g transform="matrix(1,0,0,1,188.019,160.648)">
                    <path d="M0,26.74C-0.02,26.74 -0.03,26.73 -0.05,26.72C-0.6,26.4 -3.8,24.56 -4.12,24.38C-4.66,24.06 -5.03,23.17 -5.03,21.92L-5.03,2.99C-5.03,1.95 -4.78,0.88 -4.38,0L-0.32,2.34C-0.72,3.22 -0.97,4.29 -0.97,5.33L-0.96,24.25C-0.96,25.54 -0.58,26.44 0,26.74" style="fill-rule:nonzero;"/>
                </g>
            </g>
        </g>
        <g transform="matrix(1,0,0,1,74.8238,19.8831)">
            <g opacity="0.5">
                <g transform="matrix(1,0,0,1,209.439,160.498)">
                    <path d="M0,-10.5C-0.31,-10.66 -0.67,-10.64 -1.05,-10.42L-20.38,0.75C-20.91,1.05 -21.39,1.69 -21.74,2.49L-25.8,0.15C-25.44,-0.64 -24.97,-1.28 -24.44,-1.58L-5.11,-12.75C-4.71,-12.98 -4.34,-12.99 -4.03,-12.82C-3.48,-12.51 -0.4,-10.72 0,-10.5" style="fill:white;fill-rule:nonzero;"/>
                </g>
            </g>
        </g>
        <g transform="matrix(1,0,0,1,283.218,181.133)">
            <path d="M0,14.89L-19.333,26.059C-20.441,26.699 -21.339,25.621 -21.339,23.652L-21.342,4.723C-21.342,2.754 -20.445,0.639 -19.337,-0.001L-0.003,-11.169C1.104,-11.809 2.002,-10.732 2.002,-8.763L2.005,10.166C2.005,12.136 1.107,14.25 0,14.89" style="fill:rgb(39,222,191);fill-rule:nonzero;"/>
        </g>
        <g transform="matrix(1,0,0,1,245.713,227.186)">
            <path d="M0,-39.689C-0.312,-39.865 -0.684,-39.857 -1.083,-39.627L-20.417,-28.458C-21.524,-27.818 -22.421,-25.704 -22.421,-23.735L-22.418,-4.805C-22.418,-3.556 -22.057,-2.665 -21.509,-2.345C-21.194,-2.161 -17.994,-0.327 -17.446,-0.008C-17.131,0.176 -16.755,0.171 -16.351,-0.063L2.982,-11.231C4.09,-11.871 4.988,-13.986 4.987,-15.955L4.985,-34.884C4.984,-36.154 4.61,-37.054 4.048,-37.36C3.738,-37.528 0.555,-39.376 0,-39.689" style="fill:rgb(39,222,191);fill-rule:nonzero;"/>
        </g>
        <g transform="matrix(1,0,0,1,74.8238,19.8831)">
            <g opacity="0.25">
                <g transform="matrix(1,0,0,1,153.496,180.58)">
                    <path d="M0,26.74C-0.02,26.74 -0.03,26.73 -0.05,26.72C-0.6,26.4 -3.8,24.56 -4.12,24.38C-4.66,24.06 -5.03,23.17 -5.03,21.92L-5.03,2.99C-5.03,1.95 -4.78,0.88 -4.38,0L-0.32,2.34C-0.72,3.22 -0.97,4.29 -0.97,5.33L-0.959,24.25C-0.959,25.54 -0.58,26.44 0,26.74" style="fill-rule:nonzero;"/>
                </g>
            </g>
        </g>
        <g transform="matrix(1,0,0,1,74.8238,19.8831)">
            <g opacity="0.5">
                <g transform="matrix(1,0,0,1,174.915,180.43)">
                    <path d="M0,-10.5C-0.31,-10.66 -0.67,-10.64 -1.05,-10.42L-20.379,0.75C-20.91,1.05 -21.39,1.69 -21.74,2.49L-25.8,0.15C-25.44,-0.64 -24.97,-1.28 -24.44,-1.58L-5.11,-12.75C-4.71,-12.98 -4.34,-12.99 -4.029,-12.82C-3.479,-12.51 -0.4,-10.72 0,-10.5" style="fill:white;fill-rule:nonzero;"/>
                </g>
            </g>
        </g>
        <g transform="matrix(1,0,0,1,248.694,201.065)">
            <path d="M0,14.89L-19.333,26.058C-20.441,26.699 -21.339,25.621 -21.339,23.652L-21.342,4.723C-21.342,2.754 -20.444,0.639 -19.337,-0.001L-0.003,-11.17C1.104,-11.809 2.002,-10.732 2.002,-8.763L2.005,10.166C2.005,12.135 1.108,14.25 0,14.89" style="fill:rgb(39,222,191);fill-rule:nonzero;"/>
        </g>
        <g transform="matrix(1,0,0,1,211.189,247.119)">
            <path d="M0,-39.689C-0.312,-39.865 -0.684,-39.857 -1.083,-39.627L-20.416,-28.459C-21.524,-27.819 -22.421,-25.704 -22.421,-23.735L-22.418,-4.806C-22.418,-3.556 -22.056,-2.665 -21.508,-2.345C-21.193,-2.161 -17.994,-0.328 -17.446,-0.008C-17.131,0.176 -16.755,0.171 -16.351,-0.063L2.982,-11.231C4.09,-11.871 4.988,-13.986 4.988,-15.956L4.985,-34.884C4.985,-36.155 4.611,-37.054 4.048,-37.36C3.738,-37.528 0.555,-39.376 0,-39.689" style="fill:rgb(39,222,191);fill-rule:nonzero;"/>
        </g>
        <g transform="matrix(1,0,0,1,74.8238,19.8831)">
            <g opacity="0.25">
                <g transform="matrix(1,0,0,1,118.973,200.512)">
                    <path d="M0,26.74C-0.02,26.74 -0.03,26.73 -0.05,26.72C-0.6,26.4 -3.8,24.56 -4.12,24.38C-4.66,24.06 -5.03,23.17 -5.03,21.92L-5.03,2.99C-5.03,1.95 -4.78,0.88 -4.38,0L-0.32,2.34C-0.72,3.22 -0.97,4.29 -0.97,5.33L-0.96,24.25C-0.96,25.54 -0.58,26.44 0,26.74" style="fill-rule:nonzero;"/>
                </g>
            </g>
        </g>
        <g transform="matrix(1,0,0,1,74.8238,19.8831)">
            <g opacity="0.5">
                <g transform="matrix(1,0,0,1,140.393,200.362)">
                    <path d="M0,-10.5C-0.31,-10.66 -0.67,-10.64 -1.05,-10.42L-20.38,0.75C-20.91,1.05 -21.39,1.69 -21.74,2.49L-25.8,0.15C-25.44,-0.64 -24.97,-1.28 -24.44,-1.58L-5.11,-12.75C-4.71,-12.98 -4.34,-12.99 -4.03,-12.82C-3.48,-12.51 -0.4,-10.72 0,-10.5" style="fill:white;fill-rule:nonzero;"/>
                </g>
            </g>
        </g>
        <g transform="matrix(1,0,0,1,214.172,220.997)">
            <path d="M0,14.89L-19.333,26.059C-20.441,26.699 -21.339,25.621 -21.339,23.652L-21.342,4.723C-21.342,2.754 -20.444,0.639 -19.337,-0.001L-0.003,-11.169C1.104,-11.809 2.002,-10.732 2.002,-8.763L2.005,10.166C2.005,12.136 1.107,14.25 0,14.89" style="fill:rgb(39,222,191);fill-rule:nonzero;"/>
        </g>
        <g transform="matrix(1,0,0,1,245.713,386.83)">
            <path d="M0,-39.689C-0.312,-39.865 -0.684,-39.857 -1.083,-39.627L-20.417,-28.459C-21.524,-27.819 -22.421,-25.704 -22.421,-23.735L-22.418,-4.806C-22.418,-3.556 -22.057,-2.665 -21.509,-2.345C-21.194,-2.161 -17.994,-0.327 -17.446,-0.008C-17.131,0.176 -16.755,0.171 -16.351,-0.063L2.982,-11.231C4.09,-11.871 4.988,-13.986 4.987,-15.955L4.985,-34.884C4.984,-36.155 4.61,-37.054 4.048,-37.36C3.738,-37.528 0.555,-39.376 0,-39.689" style="fill:rgb(224,224,224);fill-rule:nonzero;"/>
        </g>
        <g transform="matrix(1,0,0,1,249.739,359.957)">
            <path d="M0,-10.5C-0.31,-10.66 -0.67,-10.64 -1.05,-10.42L-20.379,0.75C-20.91,1.05 -21.39,1.69 -21.74,2.49L-25.8,0.15C-25.44,-0.64 -24.97,-1.28 -24.44,-1.58L-5.11,-12.75C-4.71,-12.98 -4.34,-12.99 -4.029,-12.82C-3.479,-12.51 -0.4,-10.72 0,-10.5" style="fill:rgb(240,240,240);fill-rule:nonzero;"/>
        </g>
        <g transform="matrix(1,0,0,1,74.8238,19.8831)">
            <g opacity="0.2">
                <g transform="matrix(1,0,0,1,153.496,340.223)">
                    <path d="M0,26.74C-0.02,26.74 -0.03,26.73 -0.05,26.72C-0.6,26.4 -3.8,24.56 -4.12,24.38C-4.66,24.06 -5.03,23.17 -5.03,21.92L-5.03,2.99C-5.03,1.95 -4.78,0.88 -4.38,0L-0.32,2.34C-0.72,3.22 -0.97,4.29 -0.97,5.33L-0.959,24.25C-0.959,25.54 -0.58,26.44 0,26.74" style="fill-rule:nonzero;"/>
                </g>
            </g>
        </g>
        <g transform="matrix(1,0,0,1,211.19,366.851)">
            <path d="M0,-39.689C-0.312,-39.865 -0.684,-39.857 -1.083,-39.627L-20.417,-28.459C-21.524,-27.819 -22.421,-25.704 -22.421,-23.735L-22.419,-4.806C-22.418,-3.556 -22.057,-2.665 -21.509,-2.345C-21.194,-2.161 -17.995,-0.328 -17.446,-0.008C-17.131,0.176 -16.755,0.171 -16.352,-0.063L2.982,-11.231C4.09,-11.871 4.988,-13.986 4.987,-15.956L4.984,-34.884C4.984,-36.155 4.61,-37.054 4.047,-37.36C3.738,-37.528 0.555,-39.376 0,-39.689" style="fill:rgb(224,224,224);fill-rule:nonzero;"/>
        </g>
        <g transform="matrix(1,0,0,1,215.216,339.978)">
            <path d="M0,-10.5C-0.31,-10.66 -0.67,-10.64 -1.05,-10.42L-20.38,0.75C-20.91,1.05 -21.39,1.69 -21.74,2.49L-25.8,0.15C-25.44,-0.64 -24.97,-1.28 -24.44,-1.58L-5.11,-12.75C-4.71,-12.98 -4.34,-12.99 -4.03,-12.82C-3.48,-12.51 -0.4,-10.72 0,-10.5" style="fill:rgb(240,240,240);fill-rule:nonzero;"/>
        </g>
        <g transform="matrix(1,0,0,1,74.8238,19.8831)">
            <g opacity="0.2">
                <g transform="matrix(1,0,0,1,118.973,320.244)">
                    <path d="M0,26.74C-0.02,26.74 -0.03,26.73 -0.05,26.72C-0.6,26.4 -3.8,24.56 -4.12,24.38C-4.66,24.06 -5.03,23.17 -5.03,21.92L-5.03,2.99C-5.03,1.95 -4.78,0.88 -4.38,0L-0.32,2.34C-0.72,3.22 -0.97,4.29 -0.97,5.33L-0.96,24.25C-0.96,25.54 -0.58,26.44 0,26.74" style="fill-rule:nonzero;"/>
                </g>
            </g>
        </g>
        <g transform="matrix(1,0,0,1,280.235,326.988)">
            <path d="M0,-39.689C-0.312,-39.865 -0.684,-39.857 -1.083,-39.627L-20.417,-28.459C-21.524,-27.819 -22.421,-25.704 -22.421,-23.735L-22.418,-4.806C-22.418,-3.556 -22.057,-2.665 -21.509,-2.345C-21.194,-2.161 -17.994,-0.328 -17.446,-0.008C-17.131,0.176 -16.755,0.171 -16.351,-0.063L2.982,-11.231C4.09,-11.871 4.988,-13.986 4.987,-15.956L4.985,-34.884C4.984,-36.155 4.61,-37.054 4.048,-37.36C3.738,-37.528 0.555,-39.376 0,-39.689" style="fill:rgb(224,224,224);fill-rule:nonzero;"/>
        </g>
        <g transform="matrix(1,0,0,1,284.263,300.114)">
            <path d="M0,-10.5C-0.31,-10.66 -0.67,-10.64 -1.05,-10.42L-20.38,0.75C-20.91,1.05 -21.39,1.69 -21.74,2.49L-25.8,0.15C-25.44,-0.64 -24.97,-1.28 -24.44,-1.58L-5.11,-12.75C-4.71,-12.98 -4.34,-12.99 -4.03,-12.82C-3.48,-12.51 -0.4,-10.72 0,-10.5" style="fill:rgb(240,240,240);fill-rule:nonzero;"/>
        </g>
        <g transform="matrix(1,0,0,1,74.8238,19.8831)">
            <g opacity="0.2">
                <g transform="matrix(1,0,0,1,188.019,280.381)">
                    <path d="M0,26.74C-0.02,26.74 -0.03,26.73 -0.05,26.72C-0.601,26.4 -3.8,24.56 -4.12,24.38C-4.66,24.06 -5.03,23.17 -5.03,21.92L-5.03,2.99C-5.03,1.95 -4.78,0.88 -4.38,0L-0.32,2.34C-0.72,3.22 -0.97,4.29 -0.97,5.33L-0.96,24.25C-0.96,25.54 -0.58,26.44 0,26.74" style="fill-rule:nonzero;"/>
                </g>
            </g>
        </g>
        <g transform="matrix(1,0,0,1,245.713,346.919)">
            <path d="M0,-39.689C-0.312,-39.865 -0.684,-39.857 -1.083,-39.627L-20.417,-28.459C-21.524,-27.818 -22.421,-25.704 -22.421,-23.735L-22.418,-4.806C-22.418,-3.556 -22.056,-2.665 -21.509,-2.345C-21.193,-2.161 -17.994,-0.327 -17.446,-0.008C-17.131,0.176 -16.755,0.171 -16.351,-0.063L2.982,-11.231C4.09,-11.871 4.988,-13.986 4.987,-15.955L4.985,-34.884C4.985,-36.154 4.611,-37.054 4.048,-37.36C3.738,-37.528 0.555,-39.376 0,-39.689" style="fill:rgb(224,224,224);fill-rule:nonzero;"/>
        </g>
        <g transform="matrix(1,0,0,1,249.74,320.046)">
            <path d="M0,-10.5C-0.31,-10.66 -0.67,-10.64 -1.05,-10.42L-20.38,0.75C-20.91,1.05 -21.39,1.69 -21.74,2.49L-25.8,0.15C-25.44,-0.64 -24.97,-1.28 -24.44,-1.58L-5.11,-12.75C-4.71,-12.98 -4.34,-12.99 -4.03,-12.82C-3.48,-12.51 -0.4,-10.72 0,-10.5" style="fill:rgb(240,240,240);fill-rule:nonzero;"/>
        </g>
        <g transform="matrix(1,0,0,1,74.8238,19.8831)">
            <g opacity="0.2">
                <g transform="matrix(1,0,0,1,153.496,300.313)">
                    <path d="M0,26.74C-0.02,26.74 -0.03,26.73 -0.05,26.72C-0.6,26.4 -3.8,24.56 -4.12,24.38C-4.66,24.06 -5.03,23.17 -5.03,21.92L-5.03,2.99C-5.03,1.95 -4.78,0.88 -4.38,0L-0.32,2.34C-0.72,3.22 -0.97,4.29 -0.97,5.33L-0.96,24.25C-0.96,25.54 -0.58,26.44 0,26.74" style="fill-rule:nonzero;"/>
                </g>
            </g>
        </g>
        <g transform="matrix(1,0,0,1,211.19,326.955)">
            <path d="M0,-39.689C-0.312,-39.865 -0.684,-39.857 -1.083,-39.627L-20.417,-28.459C-21.524,-27.819 -22.421,-25.704 -22.421,-23.735L-22.419,-4.806C-22.418,-3.556 -22.057,-2.665 -21.509,-2.345C-21.194,-2.161 -17.995,-0.328 -17.446,-0.008C-17.131,0.176 -16.755,0.171 -16.352,-0.063L2.982,-11.231C4.09,-11.871 4.988,-13.986 4.987,-15.956L4.984,-34.884C4.984,-36.155 4.61,-37.054 4.047,-37.36C3.738,-37.528 0.555,-39.376 0,-39.689" style="fill:rgb(224,224,224);fill-rule:nonzero;"/>
        </g>
        <g transform="matrix(1,0,0,1,215.216,300.082)">
            <path d="M0,-10.5C-0.31,-10.66 -0.67,-10.64 -1.05,-10.42L-20.38,0.75C-20.91,1.05 -21.39,1.69 -21.74,2.49L-25.8,0.15C-25.44,-0.64 -24.97,-1.28 -24.44,-1.58L-5.11,-12.75C-4.71,-12.98 -4.34,-12.99 -4.03,-12.82C-3.48,-12.51 -0.4,-10.72 0,-10.5" style="fill:rgb(240,240,240);fill-rule:nonzero;"/>
        </g>
        <g transform="matrix(1,0,0,1,74.8238,19.8831)">
            <g opacity="0.2">
                <g transform="matrix(1,0,0,1,118.973,280.348)">
                    <path d="M0,26.74C-0.02,26.74 -0.03,26.73 -0.05,26.72C-0.6,26.4 -3.8,24.56 -4.12,24.38C-4.66,24.06 -5.03,23.17 -5.03,21.92L-5.03,2.99C-5.03,1.95 -4.78,0.88 -4.38,0L-0.32,2.34C-0.72,3.22 -0.97,4.29 -0.97,5.33L-0.96,24.25C-0.96,25.54 -0.58,26.44 0,26.74" style="fill-rule:nonzero;"/>
                </g>
            </g>
        </g>
        <g transform="matrix(1,0,0,1,280.235,287.092)">
            <path d="M0,-39.689C-0.312,-39.865 -0.684,-39.858 -1.083,-39.627L-20.417,-28.459C-21.524,-27.819 -22.421,-25.704 -22.421,-23.735L-22.418,-4.806C-22.418,-3.556 -22.057,-2.665 -21.509,-2.345C-21.194,-2.161 -17.994,-0.328 -17.446,-0.008C-17.131,0.176 -16.755,0.171 -16.351,-0.063L2.982,-11.231C4.09,-11.871 4.988,-13.986 4.987,-15.956L4.985,-34.884C4.984,-36.155 4.61,-37.054 4.048,-37.36C3.738,-37.529 0.555,-39.376 0,-39.689" style="fill:rgb(224,224,224);fill-rule:nonzero;"/>
        </g>
        <g transform="matrix(1,0,0,1,284.263,260.218)">
            <path d="M0,-10.5C-0.31,-10.66 -0.67,-10.64 -1.05,-10.42L-20.38,0.75C-20.91,1.05 -21.39,1.69 -21.74,2.49L-25.8,0.15C-25.44,-0.64 -24.97,-1.28 -24.44,-1.58L-5.11,-12.75C-4.71,-12.98 -4.34,-12.99 -4.03,-12.82C-3.48,-12.51 -0.4,-10.72 0,-10.5" style="fill:rgb(240,240,240);fill-rule:nonzero;"/>
        </g>
        <g transform="matrix(1,0,0,1,74.8238,19.8831)">
            <g opacity="0.2">
                <g transform="matrix(1,0,0,1,188.019,240.485)">
                    <path d="M0,26.74C-0.02,26.74 -0.03,26.73 -0.05,26.72C-0.601,26.4 -3.8,24.56 -4.12,24.38C-4.66,24.06 -5.03,23.17 -5.03,21.92L-5.03,2.99C-5.03,1.95 -4.78,0.88 -4.38,0L-0.32,2.34C-0.72,3.22 -0.97,4.29 -0.97,5.33L-0.96,24.25C-0.96,25.54 -0.58,26.44 0,26.74" style="fill-rule:nonzero;"/>
                </g>
            </g>
        </g>
        <g transform="matrix(1,0,0,1,245.713,307.023)">
            <path d="M0,-39.689C-0.312,-39.865 -0.684,-39.857 -1.083,-39.627L-20.417,-28.459C-21.524,-27.819 -22.421,-25.704 -22.421,-23.735L-22.418,-4.806C-22.418,-3.556 -22.056,-2.665 -21.509,-2.345C-21.193,-2.161 -17.994,-0.327 -17.446,-0.008C-17.131,0.176 -16.755,0.171 -16.351,-0.063L2.982,-11.231C4.09,-11.871 4.988,-13.986 4.987,-15.955L4.985,-34.884C4.985,-36.154 4.611,-37.054 4.048,-37.36C3.738,-37.528 0.555,-39.376 0,-39.689" style="fill:rgb(224,224,224);fill-rule:nonzero;"/>
        </g>
        <g transform="matrix(1,0,0,1,249.74,280.15)">
            <path d="M0,-10.5C-0.31,-10.66 -0.67,-10.64 -1.05,-10.42L-20.38,0.75C-20.91,1.05 -21.39,1.69 -21.74,2.49L-25.8,0.15C-25.44,-0.64 -24.97,-1.28 -24.44,-1.58L-5.11,-12.75C-4.71,-12.98 -4.34,-12.99 -4.03,-12.82C-3.48,-12.51 -0.4,-10.72 0,-10.5" style="fill:rgb(240,240,240);fill-rule:nonzero;"/>
        </g>
        <g transform="matrix(1,0,0,1,74.8238,19.8831)">
            <g opacity="0.2">
                <g transform="matrix(1,0,0,1,153.496,260.417)">
                    <path d="M0,26.74C-0.02,26.74 -0.03,26.73 -0.05,26.72C-0.6,26.4 -3.8,24.56 -4.12,24.38C-4.66,24.06 -5.03,23.17 -5.03,21.92L-5.03,2.99C-5.03,1.95 -4.78,0.88 -4.38,0L-0.32,2.34C-0.72,3.22 -0.97,4.29 -0.97,5.33L-0.96,24.25C-0.96,25.54 -0.58,26.44 0,26.74" style="fill-rule:nonzero;"/>
                </g>
            </g>
        </g>
        <g transform="matrix(1,0,0,1,211.19,287.052)">
            <path d="M0,-39.689C-0.312,-39.865 -0.684,-39.857 -1.083,-39.627L-20.417,-28.459C-21.524,-27.818 -22.421,-25.704 -22.421,-23.735L-22.419,-4.806C-22.418,-3.556 -22.057,-2.665 -21.509,-2.345C-21.194,-2.161 -17.995,-0.327 -17.446,-0.008C-17.131,0.176 -16.755,0.171 -16.352,-0.063L2.982,-11.231C4.09,-11.871 4.988,-13.986 4.987,-15.955L4.984,-34.884C4.984,-36.154 4.61,-37.054 4.047,-37.36C3.738,-37.528 0.555,-39.376 0,-39.689" style="fill:rgb(224,224,224);fill-rule:nonzero;"/>
        </g>
        <g transform="matrix(1,0,0,1,215.216,260.178)">
            <path d="M0,-10.5C-0.31,-10.66 -0.67,-10.64 -1.05,-10.42L-20.38,0.75C-20.91,1.05 -21.39,1.69 -21.74,2.49L-25.8,0.15C-25.44,-0.64 -24.97,-1.28 -24.44,-1.58L-5.11,-12.75C-4.71,-12.98 -4.34,-12.99 -4.03,-12.82C-3.48,-12.51 -0.4,-10.72 0,-10.5" style="fill:rgb(240,240,240);fill-rule:nonzero;"/>
        </g>
        <g transform="matrix(1,0,0,1,74.8238,19.8831)">
            <g opacity="0.2">
                <g transform="matrix(1,0,0,1,118.973,240.445)">
                    <path d="M0,26.74C-0.02,26.74 -0.03,26.73 -0.05,26.72C-0.6,26.4 -3.8,24.56 -4.12,24.38C-4.66,24.06 -5.03,23.17 -5.03,21.92L-5.03,2.99C-5.03,1.95 -4.78,0.88 -4.38,0L-0.32,2.34C-0.72,3.22 -0.97,4.29 -0.97,5.33L-0.96,24.25C-0.96,25.54 -0.58,26.44 0,26.74" style="fill-rule:nonzero;"/>
                </g>
            </g>
        </g>
        <g transform="matrix(1,0,0,1,280.235,247.188)">
            <path d="M0,-39.689C-0.312,-39.865 -0.684,-39.857 -1.083,-39.627L-20.417,-28.459C-21.524,-27.819 -22.421,-25.704 -22.421,-23.735L-22.418,-4.806C-22.418,-3.556 -22.057,-2.665 -21.509,-2.345C-21.194,-2.161 -17.994,-0.327 -17.446,-0.008C-17.131,0.176 -16.755,0.171 -16.351,-0.063L2.982,-11.231C4.09,-11.871 4.988,-13.986 4.987,-15.955L4.985,-34.884C4.984,-36.155 4.61,-37.054 4.048,-37.36C3.738,-37.528 0.555,-39.376 0,-39.689" style="fill:rgb(224,224,224);fill-rule:nonzero;"/>
        </g>
        <g transform="matrix(1,0,0,1,284.263,220.314)">
            <path d="M0,-10.5C-0.31,-10.66 -0.67,-10.64 -1.05,-10.42L-20.38,0.75C-20.91,1.05 -21.39,1.69 -21.74,2.49L-25.8,0.15C-25.44,-0.64 -24.97,-1.28 -24.44,-1.58L-5.11,-12.75C-4.71,-12.98 -4.34,-12.99 -4.03,-12.82C-3.48,-12.51 -0.4,-10.72 0,-10.5" style="fill:rgb(240,240,240);fill-rule:nonzero;"/>
        </g>
        <g transform="matrix(1,0,0,1,74.8238,19.8831)">
            <g opacity="0.2">
                <g transform="matrix(1,0,0,1,188.019,200.581)">
                    <path d="M0,26.74C-0.02,26.74 -0.03,26.73 -0.05,26.72C-0.601,26.4 -3.8,24.56 -4.12,24.38C-4.66,24.06 -5.03,23.17 -5.03,21.92L-5.03,2.99C-5.03,1.95 -4.78,0.88 -4.38,0L-0.32,2.34C-0.72,3.22 -0.97,4.29 -0.97,5.33L-0.96,24.25C-0.96,25.54 -0.58,26.44 0,26.74" style="fill-rule:nonzero;"/>
                </g>
            </g>
        </g>
        <g transform="matrix(1,0,0,1,245.713,267.12)">
            <path d="M0,-39.689C-0.312,-39.865 -0.684,-39.857 -1.083,-39.627L-20.417,-28.458C-21.524,-27.818 -22.421,-25.703 -22.421,-23.734L-22.418,-4.805C-22.418,-3.555 -22.056,-2.665 -21.509,-2.345C-21.193,-2.161 -17.994,-0.327 -17.446,-0.007C-17.131,0.176 -16.755,0.171 -16.351,-0.062L2.982,-11.231C4.09,-11.871 4.988,-13.986 4.987,-15.955L4.985,-34.884C4.985,-36.154 4.611,-37.054 4.048,-37.36C3.738,-37.528 0.555,-39.376 0,-39.689" style="fill:rgb(224,224,224);fill-rule:nonzero;"/>
        </g>
        <g transform="matrix(1,0,0,1,249.74,240.246)">
            <path d="M0,-10.5C-0.31,-10.66 -0.67,-10.64 -1.05,-10.42L-20.38,0.75C-20.91,1.05 -21.39,1.69 -21.74,2.49L-25.8,0.15C-25.44,-0.64 -24.97,-1.28 -24.44,-1.58L-5.11,-12.75C-4.71,-12.98 -4.34,-12.99 -4.03,-12.82C-3.48,-12.51 -0.4,-10.72 0,-10.5" style="fill:rgb(240,240,240);fill-rule:nonzero;"/>
        </g>
        <g transform="matrix(1,0,0,1,74.8238,19.8831)">
            <g opacity="0.2">
                <g transform="matrix(1,0,0,1,153.496,220.513)">
                    <path d="M0,26.74C-0.02,26.74 -0.03,26.73 -0.05,26.72C-0.6,26.4 -3.8,24.56 -4.12,24.38C-4.66,24.06 -5.03,23.17 -5.03,21.92L-5.03,2.99C-5.03,1.95 -4.78,0.88 -4.38,0L-0.32,2.34C-0.72,3.22 -0.97,4.29 -0.97,5.33L-0.96,24.25C-0.96,25.54 -0.58,26.44 0,26.74" style="fill-rule:nonzero;"/>
                </g>
            </g>
        </g>
        <g transform="matrix(1,0,0,1,202.704,260.993)">
            <path d="M0,14.045C0,13.999 0.011,13.923 0.034,13.817L2.463,3.685L-0.889,5.621C-0.972,5.669 -1.043,5.664 -1.103,5.606C-1.163,5.548 -1.193,5.456 -1.193,5.329L-1.193,3.492C-1.193,3.365 -1.163,3.239 -1.103,3.111C-1.043,2.984 -0.972,2.897 -0.889,2.849L4.488,-0.255C4.571,-0.303 4.642,-0.298 4.702,-0.24C4.762,-0.182 4.792,-0.09 4.792,0.037L4.792,1.648C4.792,1.833 4.732,2.162 4.612,2.635L2.171,12.792C2.141,12.913 2.101,13.031 2.053,13.146C2.004,13.26 1.935,13.343 1.845,13.395L0.27,14.305C0.195,14.348 0.131,14.344 0.078,14.294C0.025,14.244 0,14.161 0,14.045" style="fill:rgb(69,90,100);fill-rule:nonzero;"/>
        </g>
        <g transform="matrix(1,0,0,1,237.946,250.322)">
            <path d="M0,-3.737C0,-3.402 0.095,-3.177 0.287,-3.063C0.478,-2.948 0.743,-2.988 1.08,-3.182C1.417,-3.377 1.682,-3.643 1.873,-3.978C2.064,-4.314 2.16,-4.649 2.16,-4.984C2.16,-5.319 2.064,-5.544 1.873,-5.658C1.682,-5.773 1.417,-5.733 1.08,-5.538C0.743,-5.343 0.478,-5.079 0.287,-4.743C0.095,-4.407 0,-4.072 0,-3.737M-0.168,1.279C-0.168,1.614 -0.066,1.835 0.141,1.941C0.347,2.048 0.66,1.979 1.08,1.737C1.5,1.493 1.812,1.201 2.02,0.856C2.226,0.512 2.328,0.173 2.328,-0.162C2.328,-0.497 2.226,-0.718 2.02,-0.824C1.812,-0.93 1.5,-0.862 1.08,-0.619C0.66,-0.377 0.347,-0.083 0.141,0.261C-0.066,0.605 -0.168,0.944 -0.168,1.279M-2.082,-2.501C-2.082,-3.066 -1.997,-3.632 -1.828,-4.197C-1.66,-4.762 -1.43,-5.296 -1.142,-5.797C-0.853,-6.299 -0.518,-6.752 -0.135,-7.158C0.248,-7.563 0.653,-7.889 1.08,-8.136C1.507,-8.383 1.912,-8.525 2.294,-8.561C2.678,-8.597 3.013,-8.531 3.302,-8.362C3.59,-8.194 3.819,-7.925 3.988,-7.555C4.157,-7.185 4.241,-6.717 4.241,-6.151C4.241,-5.689 4.189,-5.235 4.084,-4.787C3.979,-4.339 3.828,-3.904 3.633,-3.479C3.874,-3.295 4.062,-3.031 4.202,-2.69C4.34,-2.348 4.41,-1.918 4.41,-1.399C4.41,-0.833 4.323,-0.266 4.151,0.301C3.979,0.868 3.743,1.406 3.442,1.914C3.142,2.423 2.79,2.886 2.385,3.304C1.98,3.722 1.544,4.066 1.08,4.334C0.615,4.603 0.18,4.762 -0.225,4.811C-0.63,4.86 -0.983,4.804 -1.282,4.641C-1.583,4.481 -1.818,4.215 -1.992,3.847C-2.164,3.479 -2.25,3.012 -2.25,2.447C-2.25,1.927 -2.183,1.417 -2.048,0.918C-1.913,0.419 -1.725,-0.062 -1.485,-0.524C-1.673,-0.727 -1.818,-0.992 -1.924,-1.319C-2.029,-1.645 -2.082,-2.038 -2.082,-2.501" style="fill:rgb(69,90,100);fill-rule:nonzero;"/>
        </g>
        <g transform="matrix(1,0,0,1,274.765,231.658)">
            <path d="M0,-5.707C0,-5.937 -0.034,-6.129 -0.101,-6.281C-0.169,-6.432 -0.258,-6.542 -0.371,-6.609C-0.484,-6.678 -0.613,-6.707 -0.759,-6.697C-0.906,-6.687 -1.058,-6.638 -1.215,-6.547C-1.373,-6.456 -1.524,-6.331 -1.67,-6.171C-1.817,-6.012 -1.946,-5.833 -2.059,-5.635C-2.171,-5.437 -2.262,-5.224 -2.329,-4.994C-2.396,-4.765 -2.43,-4.535 -2.43,-4.304C-2.43,-4.073 -2.396,-3.882 -2.329,-3.73C-2.262,-3.579 -2.171,-3.469 -2.059,-3.401C-1.946,-3.333 -1.817,-3.304 -1.67,-3.313C-1.524,-3.323 -1.373,-3.373 -1.215,-3.464C-1.058,-3.555 -0.906,-3.68 -0.759,-3.84C-0.613,-3.999 -0.484,-4.178 -0.371,-4.375C-0.258,-4.573 -0.169,-4.787 -0.101,-5.017C-0.034,-5.246 0,-5.476 0,-5.707M-4.512,-3.102C-4.512,-3.771 -4.419,-4.429 -4.235,-5.071C-4.052,-5.714 -3.806,-6.309 -3.499,-6.857C-3.191,-7.404 -2.838,-7.89 -2.441,-8.316C-2.044,-8.741 -1.635,-9.075 -1.215,-9.318C-0.795,-9.561 -0.387,-9.698 0.011,-9.732C0.409,-9.765 0.761,-9.686 1.069,-9.494C1.376,-9.301 1.622,-8.99 1.806,-8.559C1.989,-8.128 2.081,-7.578 2.081,-6.908C2.081,-6.573 2.057,-6.25 2.008,-5.939C1.959,-5.628 1.896,-5.326 1.816,-5.032C1.738,-4.739 1.649,-4.451 1.552,-4.169C1.455,-3.888 1.357,-3.615 1.26,-3.352L-0.877,2.438C-0.916,2.518 -0.957,2.614 -1.001,2.726C-1.046,2.839 -1.121,2.925 -1.226,2.986L-3.015,4.019C-3.083,4.058 -3.137,4.052 -3.178,4C-3.22,3.949 -3.24,3.871 -3.24,3.768C-3.24,3.71 -3.234,3.66 -3.223,3.619C-3.211,3.578 -3.199,3.542 -3.184,3.51L-1.744,-0.439C-2.111,-0.308 -2.462,-0.258 -2.795,-0.291C-3.129,-0.323 -3.424,-0.448 -3.679,-0.665C-3.934,-0.881 -4.137,-1.188 -4.286,-1.587C-4.436,-1.985 -4.512,-2.49 -4.512,-3.102" style="fill:rgb(69,90,100);fill-rule:nonzero;"/>
        </g>
        <g transform="matrix(1,0,0,1,204.807,305.896)">
            <path d="M0,3.249L0,0.062L-1.642,4.197L0,3.249ZM0.248,8.112C0.165,8.16 0.094,8.154 0.034,8.097C-0.026,8.04 -0.056,7.947 -0.056,7.82L-0.056,6.053L-3.6,8.099C-3.683,8.146 -3.753,8.142 -3.813,8.083C-3.874,8.026 -3.904,7.934 -3.904,7.807L-3.904,5.971C-3.904,5.67 -3.854,5.394 -3.757,5.141L-0.394,-3.33C-0.326,-3.497 -0.264,-3.615 -0.208,-3.688C-0.151,-3.762 -0.075,-3.826 0.023,-3.883L1.721,-4.863C1.804,-4.911 1.875,-4.906 1.935,-4.848C1.995,-4.791 2.025,-4.698 2.025,-4.571L2.025,2.08L2.993,1.521C3.075,1.474 3.146,1.479 3.207,1.537C3.267,1.594 3.297,1.687 3.297,1.813L3.297,3.65C3.297,3.776 3.267,3.904 3.207,4.03C3.146,4.158 3.075,4.245 2.993,4.292L2.025,4.851L2.025,6.618C2.025,6.745 1.995,6.872 1.935,6.999C1.875,7.126 1.804,7.213 1.721,7.261L0.248,8.112Z" style="fill:rgb(69,90,100);fill-rule:nonzero;"/>
        </g>
        <g transform="matrix(1,0,0,1,237.839,284.287)">
            <path d="M0,7.103C0.053,7.177 0.111,7.253 0.174,7.332C0.238,7.411 0.315,7.473 0.405,7.519C0.495,7.565 0.604,7.586 0.732,7.582C0.859,7.578 1.009,7.525 1.182,7.426C1.339,7.335 1.489,7.217 1.631,7.071C1.774,6.925 1.901,6.756 2.014,6.564C2.126,6.372 2.214,6.166 2.279,5.944C2.342,5.723 2.374,5.484 2.374,5.23C2.374,4.838 2.274,4.575 2.076,4.441C1.877,4.308 1.605,4.341 1.261,4.54C1.155,4.601 1.056,4.681 0.962,4.781C0.868,4.882 0.782,4.98 0.703,5.078C0.625,5.175 0.552,5.267 0.484,5.352C0.417,5.436 0.36,5.492 0.315,5.519L-1.44,6.532C-1.53,6.583 -1.604,6.581 -1.665,6.523C-1.725,6.465 -1.751,6.371 -1.744,6.239L-1.406,-0.139C-1.399,-0.27 -1.367,-0.398 -1.31,-0.523C-1.254,-0.648 -1.185,-0.734 -1.102,-0.782L3.713,-3.562C3.795,-3.61 3.867,-3.605 3.927,-3.547C3.987,-3.489 4.017,-3.397 4.017,-3.27L4.017,-1.434C4.017,-1.307 3.987,-1.18 3.927,-1.053C3.867,-0.925 3.795,-0.838 3.713,-0.791L0.439,1.1L0.36,2.686C0.495,2.493 0.65,2.309 0.827,2.131C1.003,1.954 1.196,1.806 1.406,1.684C1.841,1.433 2.245,1.292 2.616,1.263C2.987,1.233 3.309,1.313 3.583,1.501C3.857,1.689 4.071,1.994 4.225,2.413C4.378,2.832 4.456,3.371 4.456,4.028C4.456,4.721 4.371,5.382 4.202,6.011C4.034,6.64 3.801,7.221 3.505,7.755C3.208,8.291 2.862,8.765 2.464,9.18C2.066,9.594 1.639,9.933 1.182,10.197C0.672,10.491 0.215,10.654 -0.185,10.683C-0.586,10.713 -0.926,10.638 -1.203,10.457C-1.481,10.276 -1.695,10.007 -1.845,9.649C-1.995,9.292 -2.073,8.878 -2.081,8.409C-2.081,8.305 -2.057,8.202 -2.008,8.098C-1.959,7.995 -1.901,7.924 -1.833,7.885L-0.405,7.06C-0.285,6.991 -0.193,6.972 -0.129,7.004C-0.066,7.038 -0.022,7.071 0,7.103" style="fill:rgb(69,90,100);fill-rule:nonzero;"/>
        </g>
        <g transform="matrix(1,0,0,1,272.272,265.266)">
            <path d="M0,5.672C0,5.926 0.038,6.13 0.113,6.283C0.187,6.436 0.285,6.545 0.405,6.608C0.525,6.672 0.662,6.693 0.816,6.674C0.97,6.654 1.125,6.599 1.283,6.508C1.44,6.417 1.596,6.293 1.75,6.134C1.903,5.977 2.039,5.797 2.155,5.597C2.271,5.398 2.367,5.178 2.441,4.939C2.517,4.699 2.554,4.452 2.554,4.197C2.554,3.944 2.517,3.74 2.441,3.588C2.367,3.434 2.271,3.325 2.155,3.259C2.039,3.194 1.903,3.171 1.75,3.19C1.596,3.209 1.44,3.265 1.283,3.356C1.125,3.447 0.97,3.571 0.816,3.729C0.662,3.887 0.525,4.068 0.405,4.27C0.285,4.472 0.187,4.692 0.113,4.932C0.038,5.172 0,5.419 0,5.672M4.636,2.996C4.636,3.677 4.545,4.339 4.365,4.979C4.185,5.621 3.941,6.214 3.634,6.762C3.326,7.309 2.97,7.8 2.565,8.236C2.16,8.672 1.733,9.019 1.283,9.279C0.833,9.539 0.405,9.685 0,9.717C-0.405,9.749 -0.763,9.67 -1.074,9.48C-1.386,9.29 -1.631,8.979 -1.811,8.545C-1.991,8.112 -2.081,7.555 -2.081,6.874C-2.081,6.516 -2.053,6.173 -1.997,5.847C-1.94,5.52 -1.871,5.205 -1.789,4.904C-1.706,4.602 -1.616,4.314 -1.518,4.037C-1.421,3.762 -1.327,3.5 -1.237,3.252L0.911,-2.457C0.949,-2.536 0.99,-2.633 1.035,-2.745C1.081,-2.858 1.155,-2.945 1.261,-3.005L3.049,-4.038C3.117,-4.077 3.171,-4.071 3.212,-4.019C3.253,-3.968 3.274,-3.891 3.274,-3.787C3.274,-3.729 3.268,-3.68 3.257,-3.639C3.246,-3.598 3.233,-3.561 3.218,-3.529L1.755,0.364C2.153,0.204 2.526,0.135 2.875,0.159C3.224,0.183 3.529,0.301 3.792,0.513C4.054,0.725 4.26,1.039 4.41,1.455C4.56,1.871 4.636,2.384 4.636,2.996" style="fill:rgb(69,90,100);fill-rule:nonzero;"/>
        </g>
        <g transform="matrix(1,0,0,1,202.194,347.472)">
            <path d="M0,-0.129C-0.053,-0.202 -0.072,-0.307 -0.057,-0.442C-0.042,-0.578 0,-0.706 0.067,-0.826L2.486,-5.08C2.546,-5.184 2.619,-5.307 2.706,-5.449C2.791,-5.591 2.891,-5.695 3.003,-5.76L4.376,-6.552C4.458,-6.6 4.529,-6.595 4.589,-6.537C4.649,-6.479 4.679,-6.387 4.679,-6.26L4.679,4.929C4.679,5.056 4.649,5.183 4.589,5.31C4.529,5.437 4.458,5.524 4.376,5.572L2.902,6.423C2.82,6.471 2.748,6.466 2.688,6.408C2.628,6.35 2.599,6.258 2.599,6.131L2.599,-1.439L1.26,0.893C1.192,1.013 1.117,1.088 1.035,1.119C0.952,1.149 0.885,1.127 0.832,1.054L0,-0.129Z" style="fill:rgb(69,90,100);fill-rule:nonzero;"/>
        </g>
        <g transform="matrix(1,0,0,1,242.12,333.412)">
            <path d="M0,-9.034C0,-8.699 -0.023,-8.363 -0.067,-8.025C-0.112,-7.688 -0.19,-7.34 -0.298,-6.983C-0.407,-6.626 -0.549,-6.251 -0.726,-5.861C-0.902,-5.471 -1.118,-5.057 -1.373,-4.622L-2.947,-1.876L-0.124,-3.507C-0.041,-3.555 0.03,-3.549 0.09,-3.492C0.15,-3.433 0.18,-3.342 0.18,-3.215L0.18,-1.378C0.18,-1.251 0.15,-1.124 0.09,-0.997C0.03,-0.87 -0.041,-0.783 -0.124,-0.736L-6.064,2.694C-6.146,2.742 -6.218,2.737 -6.278,2.679C-6.338,2.622 -6.368,2.529 -6.368,2.402L-6.368,0.912C-6.368,0.728 -6.343,0.529 -6.294,0.316C-6.246,0.103 -6.161,-0.101 -6.041,-0.298L-2.678,-5.947C-2.415,-6.398 -2.25,-6.767 -2.183,-7.055C-2.115,-7.342 -2.081,-7.601 -2.081,-7.833C-2.081,-7.913 -2.09,-8.021 -2.109,-8.154C-2.128,-8.287 -2.171,-8.407 -2.238,-8.513C-2.307,-8.617 -2.402,-8.687 -2.525,-8.72C-2.649,-8.752 -2.816,-8.707 -3.026,-8.586C-3.236,-8.465 -3.407,-8.311 -3.539,-8.126C-3.669,-7.94 -3.771,-7.758 -3.842,-7.578C-3.914,-7.398 -3.965,-7.227 -3.999,-7.063C-4.033,-6.899 -4.058,-6.778 -4.072,-6.701C-4.11,-6.516 -4.168,-6.377 -4.247,-6.279C-4.326,-6.181 -4.417,-6.103 -4.523,-6.042L-5.906,-5.243C-5.974,-5.204 -6.032,-5.208 -6.081,-5.255C-6.13,-5.302 -6.154,-5.377 -6.154,-5.481C-6.146,-5.971 -6.079,-6.492 -5.951,-7.045C-5.824,-7.597 -5.631,-8.144 -5.372,-8.686C-5.113,-9.228 -4.791,-9.732 -4.404,-10.198C-4.018,-10.663 -3.563,-11.048 -3.038,-11.351C-2.542,-11.637 -2.106,-11.776 -1.727,-11.769C-1.349,-11.763 -1.031,-11.646 -0.776,-11.418C-0.521,-11.189 -0.328,-10.868 -0.197,-10.453C-0.066,-10.038 0,-9.565 0,-9.034" style="fill:rgb(69,90,100);fill-rule:nonzero;"/>
        </g>
        <g transform="matrix(1,0,0,1,276.21,314.974)">
            <path d="M0,-14.348C0.083,-14.396 0.154,-14.39 0.214,-14.333C0.274,-14.275 0.304,-14.183 0.304,-14.056L0.304,-12.22C0.304,-12.093 0.278,-11.962 0.225,-11.828C0.173,-11.694 0.124,-11.579 0.079,-11.484L-1.282,-8.584C-0.697,-8.691 -0.221,-8.577 0.146,-8.241C0.514,-7.904 0.698,-7.286 0.698,-6.385C0.698,-5.08 0.405,-3.93 -0.18,-2.934C-0.765,-1.938 -1.583,-1.137 -2.632,-0.531C-3.172,-0.219 -3.65,-0.041 -4.066,0.003C-4.483,0.048 -4.834,-0.01 -5.119,-0.169C-5.404,-0.328 -5.623,-0.568 -5.776,-0.889C-5.93,-1.21 -6.011,-1.582 -6.018,-2.005C-6.018,-2.109 -5.994,-2.212 -5.946,-2.316C-5.896,-2.419 -5.839,-2.49 -5.771,-2.529L-4.354,-3.347C-4.196,-3.438 -4.076,-3.453 -3.994,-3.39C-3.911,-3.328 -3.819,-3.263 -3.718,-3.195C-3.617,-3.126 -3.485,-3.083 -3.324,-3.067C-3.163,-3.05 -2.933,-3.129 -2.632,-3.302C-2.272,-3.51 -1.974,-3.775 -1.738,-4.096C-1.501,-4.416 -1.383,-4.779 -1.383,-5.183C-1.383,-5.587 -1.501,-5.814 -1.738,-5.862C-1.974,-5.91 -2.272,-5.83 -2.632,-5.622L-3.566,-5.083C-3.649,-5.035 -3.72,-5.041 -3.78,-5.098C-3.84,-5.157 -3.87,-5.248 -3.87,-5.376L-3.87,-6.866C-3.87,-6.993 -3.844,-7.123 -3.791,-7.257C-3.739,-7.391 -3.686,-7.514 -3.633,-7.626L-2.441,-10.167L-5.377,-8.472C-5.46,-8.424 -5.531,-8.429 -5.591,-8.487C-5.651,-8.545 -5.681,-8.637 -5.681,-8.764L-5.681,-10.6C-5.681,-10.727 -5.651,-10.854 -5.591,-10.981C-5.531,-11.108 -5.46,-11.196 -5.377,-11.244L0,-14.348Z" style="fill:rgb(69,90,100);fill-rule:nonzero;"/>
        </g>
        <g transform="matrix(1,0,0,1,240.23,367.395)">
            <path d="M0,1.518C0.03,0.52 0.03,-0.45 0,-1.391C-0.015,-1.671 -0.043,-1.921 -0.084,-2.14C-0.125,-2.358 -0.191,-2.531 -0.281,-2.658C-0.371,-2.785 -0.491,-2.857 -0.641,-2.875C-0.791,-2.892 -0.979,-2.836 -1.203,-2.706C-1.428,-2.576 -1.616,-2.416 -1.766,-2.225C-1.916,-2.034 -2.036,-1.823 -2.126,-1.593C-2.216,-1.361 -2.284,-1.112 -2.328,-0.844C-2.374,-0.575 -2.4,-0.294 -2.407,-0.001C-2.445,0.979 -2.445,1.949 -2.407,2.908C-2.4,3.193 -2.375,3.444 -2.334,3.663C-2.293,3.882 -2.226,4.054 -2.131,4.178C-2.038,4.303 -1.916,4.374 -1.766,4.392C-1.616,4.409 -1.428,4.353 -1.203,4.223C-0.979,4.093 -0.791,3.933 -0.641,3.743C-0.491,3.551 -0.369,3.34 -0.275,3.106C-0.182,2.874 -0.114,2.624 -0.072,2.357C-0.031,2.091 -0.007,1.812 0,1.518M-1.203,-5.477C-0.641,-5.802 -0.157,-5.954 0.248,-5.934C0.653,-5.914 0.988,-5.766 1.255,-5.493C1.521,-5.219 1.72,-4.835 1.851,-4.339C1.982,-3.843 2.059,-3.29 2.082,-2.68C2.096,-2.191 2.104,-1.677 2.104,-1.134C2.104,-0.591 2.096,-0.078 2.082,0.403C2.059,1.04 1.982,1.682 1.851,2.33C1.72,2.976 1.521,3.591 1.255,4.172C0.988,4.753 0.653,5.287 0.248,5.775C-0.157,6.264 -0.641,6.669 -1.203,6.994C-1.766,7.318 -2.25,7.472 -2.655,7.451C-3.06,7.431 -3.396,7.284 -3.661,7.01C-3.928,6.737 -4.126,6.351 -4.257,5.857C-4.389,5.36 -4.466,4.808 -4.488,4.196C-4.503,3.732 -4.511,3.228 -4.511,2.685C-4.511,2.143 -4.503,1.619 -4.488,1.113C-4.466,0.477 -4.389,-0.165 -4.257,-0.813C-4.126,-1.46 -3.928,-2.074 -3.661,-2.655C-3.396,-3.235 -3.06,-3.77 -2.655,-4.258C-2.25,-4.746 -1.766,-5.152 -1.203,-5.477" style="fill:rgb(69,90,100);fill-rule:nonzero;"/>
        </g>
        <g transform="matrix(1,0,0,1,199.722,227.475)">
            <path d="M0,6.732C-0.064,6.671 -0.115,6.605 -0.152,6.534L-1.209,4.286L-1.209,10.02C-1.209,10.147 -1.24,10.274 -1.299,10.4C-1.36,10.528 -1.431,10.615 -1.514,10.663L-2.987,11.514C-3.07,11.561 -3.141,11.556 -3.201,11.498C-3.261,11.441 -3.291,11.349 -3.291,11.222L-3.291,0.032C-3.291,-0.095 -3.261,-0.222 -3.201,-0.349C-3.141,-0.476 -3.07,-0.563 -2.987,-0.611L-1.682,-1.364C-1.532,-1.451 -1.42,-1.452 -1.345,-1.368C-1.27,-1.285 -1.221,-1.221 -1.199,-1.176L0.624,2.57L2.447,-3.281C2.469,-3.351 2.518,-3.471 2.592,-3.642C2.668,-3.812 2.78,-3.94 2.93,-4.027L4.235,-4.781C4.318,-4.829 4.389,-4.823 4.449,-4.766C4.509,-4.707 4.539,-4.616 4.539,-4.489L4.539,6.701C4.539,6.828 4.509,6.955 4.449,7.082C4.389,7.209 4.318,7.296 4.235,7.344L2.762,8.194C2.679,8.242 2.608,8.237 2.548,8.179C2.488,8.122 2.458,8.029 2.458,7.902L2.458,2.169L1.4,5.638C1.363,5.752 1.312,5.876 1.249,6.011C1.185,6.146 1.097,6.246 0.984,6.311L0.264,6.727C0.151,6.792 0.063,6.794 0,6.732" style="fill:rgb(250,250,250);fill-rule:nonzero;"/>
        </g>
        <g transform="matrix(1,0,0,1,207.648,226.432)">
            <path d="M0,-1.26C-0.007,-1.106 -0.013,-0.894 -0.017,-0.627C-0.021,-0.359 -0.023,-0.084 -0.023,0.199C-0.023,0.482 -0.021,0.758 -0.017,1.027C-0.013,1.297 -0.007,1.504 0,1.65C0.015,1.907 0.049,2.141 0.101,2.353C0.154,2.565 0.236,2.731 0.349,2.851C0.461,2.971 0.604,3.036 0.776,3.046C0.948,3.056 1.162,2.988 1.418,2.84C1.673,2.693 1.882,2.526 2.048,2.338C2.212,2.151 2.347,1.96 2.453,1.766C2.558,1.573 2.638,1.38 2.694,1.185C2.751,0.991 2.793,0.817 2.824,0.66C2.861,0.454 2.902,0.3 2.947,0.199C2.993,0.098 3.079,0.011 3.207,-0.063L4.68,-0.914C4.748,-0.953 4.805,-0.948 4.854,-0.902C4.903,-0.855 4.928,-0.78 4.928,-0.676C4.92,-0.082 4.827,0.526 4.646,1.149C4.466,1.773 4.219,2.366 3.904,2.929C3.589,3.492 3.22,4.009 2.795,4.478C2.372,4.948 1.912,5.326 1.418,5.612C0.877,5.924 0.396,6.077 -0.028,6.074C-0.452,6.071 -0.814,5.942 -1.113,5.688C-1.414,5.433 -1.645,5.067 -1.806,4.589C-1.967,4.11 -2.059,3.56 -2.081,2.938C-2.096,2.473 -2.104,1.969 -2.104,1.427C-2.104,0.884 -2.096,0.36 -2.081,-0.145C-2.066,-0.789 -1.976,-1.445 -1.812,-2.111C-1.646,-2.778 -1.416,-3.41 -1.119,-4.009C-0.823,-4.607 -0.461,-5.153 -0.034,-5.649C0.394,-6.144 0.877,-6.547 1.418,-6.859C1.912,-7.145 2.372,-7.298 2.795,-7.317C3.22,-7.337 3.589,-7.246 3.904,-7.047C4.219,-6.848 4.466,-6.541 4.646,-6.125C4.827,-5.71 4.92,-5.21 4.928,-4.625C4.928,-4.521 4.903,-4.417 4.854,-4.314C4.805,-4.21 4.748,-4.139 4.68,-4.101L3.207,-3.25C3.079,-3.177 2.993,-3.164 2.947,-3.213C2.902,-3.262 2.861,-3.368 2.824,-3.531C2.793,-3.653 2.751,-3.778 2.694,-3.907C2.638,-4.036 2.558,-4.137 2.453,-4.209C2.347,-4.281 2.212,-4.316 2.048,-4.313C1.882,-4.31 1.673,-4.235 1.418,-4.088C1.162,-3.94 0.948,-3.762 0.776,-3.553C0.604,-3.343 0.461,-3.114 0.349,-2.864C0.236,-2.615 0.154,-2.353 0.101,-2.08C0.049,-1.808 0.015,-1.534 0,-1.26" style="fill:rgb(250,250,250);fill-rule:nonzero;"/>
        </g>
        <g transform="matrix(1,0,0,1,234.307,207.509)">
            <path d="M0,6.731C-0.064,6.67 -0.114,6.604 -0.152,6.533L-1.209,4.286L-1.209,10.019C-1.209,10.146 -1.239,10.273 -1.299,10.399C-1.359,10.527 -1.431,10.614 -1.513,10.662L-2.987,11.513C-3.07,11.561 -3.141,11.555 -3.201,11.498C-3.261,11.44 -3.291,11.348 -3.291,11.221L-3.291,0.031C-3.291,-0.096 -3.261,-0.223 -3.201,-0.35C-3.141,-0.477 -3.07,-0.564 -2.987,-0.612L-1.682,-1.365C-1.532,-1.452 -1.419,-1.453 -1.345,-1.369C-1.27,-1.285 -1.221,-1.221 -1.199,-1.177L0.624,2.569L2.447,-3.282C2.47,-3.352 2.518,-3.472 2.592,-3.643C2.668,-3.813 2.78,-3.941 2.93,-4.028L4.235,-4.782C4.318,-4.83 4.389,-4.824 4.449,-4.767C4.509,-4.708 4.539,-4.617 4.539,-4.49L4.539,6.7C4.539,6.827 4.509,6.954 4.449,7.081C4.389,7.208 4.318,7.295 4.235,7.343L2.762,8.193C2.679,8.241 2.608,8.236 2.548,8.178C2.488,8.121 2.458,8.028 2.458,7.902L2.458,2.168L1.4,5.637C1.363,5.751 1.312,5.876 1.249,6.01C1.185,6.145 1.097,6.245 0.984,6.31L0.264,6.726C0.151,6.791 0.063,6.793 0,6.731" style="fill:rgb(250,250,250);fill-rule:nonzero;"/>
        </g>
        <g transform="matrix(1,0,0,1,242.503,207.07)">
            <path d="M0,-1.381L1.271,-2.115C1.586,-2.297 1.846,-2.54 2.053,-2.843C2.259,-3.148 2.362,-3.542 2.362,-4.027C2.362,-4.511 2.259,-4.787 2.053,-4.853C1.846,-4.918 1.586,-4.86 1.271,-4.678L0,-3.944L0,-1.381ZM1.271,-7.363C1.766,-7.649 2.208,-7.823 2.599,-7.887C2.988,-7.95 3.32,-7.9 3.594,-7.735C3.868,-7.569 4.078,-7.277 4.224,-6.86C4.37,-6.442 4.443,-5.898 4.443,-5.228C4.443,-4.362 4.327,-3.576 4.095,-2.87C3.862,-2.165 3.532,-1.538 3.104,-0.991L4.5,2.326C4.522,2.382 4.533,2.439 4.533,2.496C4.533,2.6 4.509,2.704 4.46,2.807C4.411,2.911 4.353,2.982 4.286,3.02L2.756,3.904C2.605,3.991 2.499,4 2.435,3.933C2.371,3.866 2.321,3.791 2.283,3.709L1.035,0.723L0,1.321L0,5.028C0,5.155 -0.03,5.282 -0.09,5.409C-0.15,5.536 -0.221,5.623 -0.304,5.671L-1.778,6.521C-1.861,6.569 -1.932,6.564 -1.992,6.506C-2.052,6.449 -2.082,6.356 -2.082,6.229L-2.082,-4.96C-2.082,-5.087 -2.052,-5.214 -1.992,-5.341C-1.932,-5.468 -1.861,-5.555 -1.778,-5.603L1.271,-7.363Z" style="fill:rgb(250,250,250);fill-rule:nonzero;"/>
        </g>
        <g transform="matrix(1,0,0,1,270.146,186.816)">
            <path d="M0,6.732C-0.063,6.67 -0.114,6.605 -0.151,6.533L-1.209,4.286L-1.209,10.02C-1.209,10.147 -1.239,10.274 -1.299,10.4C-1.359,10.527 -1.43,10.615 -1.513,10.663L-2.986,11.513C-3.069,11.561 -3.14,11.556 -3.201,11.498C-3.261,11.441 -3.291,11.348 -3.291,11.221L-3.291,0.032C-3.291,-0.095 -3.261,-0.222 -3.201,-0.349C-3.14,-0.476 -3.069,-0.563 -2.986,-0.611L-1.682,-1.365C-1.532,-1.451 -1.419,-1.453 -1.344,-1.369C-1.269,-1.285 -1.221,-1.221 -1.198,-1.176L0.624,2.57L2.447,-3.281C2.47,-3.351 2.518,-3.471 2.593,-3.642C2.668,-3.812 2.78,-3.941 2.931,-4.027L4.236,-4.781C4.318,-4.829 4.39,-4.824 4.45,-4.766C4.51,-4.708 4.54,-4.616 4.54,-4.489L4.54,6.7C4.54,6.827 4.51,6.955 4.45,7.081C4.39,7.209 4.318,7.295 4.236,7.343L2.762,8.194C2.679,8.242 2.608,8.237 2.548,8.179C2.488,8.122 2.458,8.029 2.458,7.902L2.458,2.169L1.4,5.637C1.363,5.752 1.312,5.876 1.249,6.011C1.185,6.146 1.097,6.246 0.984,6.311L0.265,6.726C0.152,6.792 0.064,6.793 0,6.732" style="fill:rgb(250,250,250);fill-rule:nonzero;"/>
        </g>
        <g transform="matrix(1,0,0,1,276.396,184.404)">
            <path d="M0,4.73C-0.083,4.778 -0.154,4.773 -0.214,4.715C-0.274,4.657 -0.304,4.565 -0.304,4.438L-0.304,2.688C-0.304,2.562 -0.274,2.435 -0.214,2.308C-0.154,2.181 -0.083,2.093 0,2.045L3.543,0C3.625,-0.048 3.697,-0.043 3.757,0.015C3.817,0.073 3.847,0.165 3.847,0.292L3.847,2.041C3.847,2.168 3.817,2.295 3.757,2.422C3.697,2.55 3.625,2.637 3.543,2.684L0,4.73Z" style="fill:rgb(250,250,250);fill-rule:nonzero;"/>
        </g>
        <g transform="matrix(1,0,0,1,303.803,167.384)">
            <path d="M0,6.732C-0.063,6.67 -0.114,6.605 -0.151,6.534L-1.209,4.286L-1.209,10.02C-1.209,10.147 -1.239,10.274 -1.299,10.4C-1.359,10.527 -1.43,10.615 -1.513,10.663L-2.987,11.513C-3.07,11.561 -3.141,11.556 -3.201,11.498C-3.261,11.441 -3.291,11.348 -3.291,11.221L-3.291,0.032C-3.291,-0.095 -3.261,-0.222 -3.201,-0.349C-3.141,-0.476 -3.07,-0.563 -2.987,-0.611L-1.682,-1.364C-1.532,-1.451 -1.419,-1.452 -1.345,-1.369C-1.27,-1.285 -1.221,-1.221 -1.198,-1.176L0.624,2.57L2.447,-3.281C2.47,-3.351 2.518,-3.471 2.593,-3.642C2.668,-3.812 2.78,-3.94 2.93,-4.027L4.236,-4.781C4.318,-4.829 4.39,-4.823 4.45,-4.766C4.509,-4.708 4.54,-4.616 4.54,-4.489L4.54,6.701C4.54,6.828 4.509,6.955 4.45,7.082C4.39,7.209 4.318,7.296 4.236,7.344L2.762,8.194C2.679,8.242 2.608,8.237 2.548,8.179C2.488,8.122 2.458,8.029 2.458,7.902L2.458,2.169L1.4,5.638C1.363,5.752 1.312,5.876 1.249,6.011C1.185,6.146 1.097,6.246 0.984,6.311L0.265,6.727C0.151,6.792 0.063,6.794 0,6.732" style="fill:rgb(250,250,250);fill-rule:nonzero;"/>
        </g>
        <g transform="matrix(1,0,0,1,313.596,166.142)">
            <path d="M0,1.514L0,4.372C0,4.499 -0.03,4.626 -0.09,4.753C-0.15,4.881 -0.221,4.968 -0.304,5.015L-1.721,5.834C-1.804,5.882 -1.875,5.876 -1.935,5.819C-1.995,5.761 -2.025,5.669 -2.025,5.541L-2.025,2.683L-3.769,3.69C-3.851,3.738 -3.922,3.733 -3.982,3.676C-4.043,3.618 -4.072,3.525 -4.072,3.398L-4.072,1.648C-4.072,1.521 -4.043,1.395 -3.982,1.268C-3.922,1.141 -3.851,1.053 -3.769,1.006L-2.025,-0.001L-2.025,-2.859C-2.025,-2.986 -1.995,-3.112 -1.935,-3.24C-1.875,-3.367 -1.804,-3.454 -1.721,-3.502L-0.304,-4.32C-0.221,-4.368 -0.15,-4.362 -0.09,-4.305C-0.03,-4.247 0,-4.155 0,-4.028L0,-1.17L1.732,-2.17C1.815,-2.218 1.886,-2.213 1.946,-2.155C2.006,-2.097 2.036,-2.005 2.036,-1.879L2.036,-0.129C2.036,-0.001 2.006,0.125 1.946,0.252C1.886,0.38 1.815,0.466 1.732,0.514L0,1.514Z" style="fill:rgb(250,250,250);fill-rule:nonzero;"/>
        </g>
        <g transform="matrix(1,0,0,1,304.726,205.177)">
            <path d="M0,6.548C-0.083,6.596 -0.154,6.591 -0.214,6.533C-0.274,6.476 -0.304,6.384 -0.304,6.256L-0.304,4.507C-0.304,4.38 -0.274,4.253 -0.214,4.126C-0.154,3.999 -0.083,3.912 0,3.864L6.694,-0.001C6.776,-0.048 6.848,-0.043 6.908,0.015C6.968,0.072 6.998,0.164 6.998,0.291L6.998,2.041C6.998,2.168 6.968,2.295 6.908,2.422C6.848,2.549 6.776,2.636 6.694,2.684L0,6.548Z" style="fill:rgb(250,250,250);fill-rule:nonzero;"/>
        </g>
        <g transform="matrix(-0.500115,-0.865959,-0.865959,0.500115,306.96,202.984)">
            <path d="M-1.112,-1.927C-1.932,-1.454 -2.596,-0.495 -2.595,0.214C-2.596,0.924 -1.932,1.115 -1.112,0.642C-0.293,0.169 0.371,-0.79 0.371,-1.499C0.371,-2.209 -0.293,-2.4 -1.112,-1.927" style="fill:rgb(250,250,250);fill-rule:nonzero;"/>
        </g>
        <g transform="matrix(-0.500115,-0.865959,-0.865959,0.500115,306.96,212.846)">
            <path d="M-1.113,-1.926C-0.294,-2.4 0.371,-2.208 0.371,-1.498C0.371,-0.789 -0.293,0.169 -1.113,0.643C-1.931,1.116 -2.596,0.924 -2.596,0.215C-2.596,-0.495 -1.932,-1.453 -1.113,-1.926" style="fill:rgb(250,250,250);fill-rule:nonzero;"/>
        </g>
        <g transform="matrix(1,0,0,1,306.644,247.652)">
            <path d="M0,1.65L-1.451,0.236C-1.511,0.179 -1.541,0.086 -1.541,-0.041C-1.541,-0.168 -1.511,-0.295 -1.451,-0.422L-0.45,-2.542C-0.39,-2.669 -0.319,-2.756 -0.236,-2.804C-0.154,-2.851 -0.083,-2.846 -0.022,-2.788L1.429,-1.374L2.88,-4.447C2.94,-4.574 3.011,-4.661 3.094,-4.709C3.176,-4.756 3.248,-4.751 3.308,-4.693L4.309,-3.73C4.369,-3.672 4.399,-3.58 4.399,-3.454C4.399,-3.326 4.369,-3.199 4.309,-3.072L2.858,0L4.309,1.379C4.369,1.437 4.399,1.53 4.399,1.656C4.399,1.783 4.369,1.911 4.309,2.038L3.308,4.157C3.248,4.285 3.176,4.371 3.094,4.419C3.011,4.467 2.94,4.462 2.88,4.404L1.429,3.025L-0.022,6.097C-0.083,6.224 -0.154,6.312 -0.236,6.359C-0.319,6.406 -0.39,6.401 -0.45,6.343L-1.451,5.38C-1.511,5.323 -1.541,5.231 -1.541,5.104C-1.541,4.976 -1.511,4.849 -1.451,4.722L0,1.65Z" style="fill:rgb(250,250,250);fill-rule:nonzero;"/>
        </g>
        <g transform="matrix(1,0,0,1,304.726,285.104)">
            <path d="M0,6.55C-0.083,6.597 -0.154,6.593 -0.214,6.535C-0.274,6.477 -0.304,6.385 -0.304,6.258L-0.304,4.508C-0.304,4.382 -0.274,4.255 -0.214,4.128C-0.154,4.001 -0.083,3.913 0,3.865L6.694,0.001C6.776,-0.047 6.848,-0.042 6.908,0.016C6.968,0.074 6.998,0.166 6.998,0.293L6.998,2.042C6.998,2.17 6.968,2.297 6.908,2.424C6.848,2.551 6.776,2.638 6.694,2.685L0,6.55Z" style="fill:rgb(250,250,250);fill-rule:nonzero;"/>
        </g>
        <g transform="matrix(1,0,0,1,199.862,389.748)">
            <path d="M0,2.524L1.823,1.472L0.911,-2.159L0,2.524ZM1.823,-6.097C1.973,-6.184 2.087,-6.186 2.166,-6.105C2.244,-6.023 2.299,-5.928 2.329,-5.818L4.781,3.678C4.812,3.776 4.827,3.855 4.827,3.912C4.827,4.016 4.802,4.119 4.753,4.223C4.705,4.327 4.646,4.397 4.579,4.436L3.161,5.255C3.011,5.341 2.904,5.354 2.84,5.293C2.777,5.231 2.738,5.159 2.723,5.075L2.408,3.819L-0.585,5.547L-0.9,7.167C-0.915,7.268 -0.954,7.385 -1.018,7.52C-1.082,7.655 -1.188,7.766 -1.339,7.853L-2.756,8.671C-2.823,8.71 -2.882,8.707 -2.93,8.659C-2.979,8.612 -3.003,8.537 -3.003,8.433C-3.003,8.376 -2.989,8.28 -2.959,8.147L-0.506,-4.181C-0.476,-4.325 -0.422,-4.483 -0.343,-4.657C-0.264,-4.829 -0.15,-4.958 0,-5.045L1.823,-6.097Z" style="fill:rgb(250,250,250);fill-rule:nonzero;"/>
        </g>
        <g transform="matrix(1,0,0,1,207.22,386.323)">
            <path d="M0,-1.26C-0.007,-1.106 -0.013,-0.894 -0.017,-0.627C-0.021,-0.359 -0.023,-0.084 -0.023,0.199C-0.023,0.482 -0.021,0.758 -0.017,1.027C-0.013,1.297 -0.007,1.504 0,1.649C0.015,1.907 0.049,2.14 0.101,2.353C0.154,2.565 0.236,2.731 0.349,2.851C0.461,2.971 0.604,3.037 0.776,3.046C0.948,3.056 1.162,2.988 1.418,2.841C1.673,2.693 1.882,2.526 2.048,2.338C2.212,2.151 2.347,1.96 2.453,1.766C2.558,1.573 2.638,1.38 2.694,1.185C2.751,0.99 2.793,0.816 2.824,0.659C2.861,0.454 2.902,0.3 2.947,0.199C2.993,0.098 3.079,0.01 3.207,-0.064L4.68,-0.914C4.748,-0.953 4.805,-0.949 4.854,-0.902C4.903,-0.855 4.928,-0.78 4.928,-0.676C4.92,-0.083 4.827,0.526 4.646,1.149C4.466,1.773 4.219,2.367 3.904,2.928C3.589,3.492 3.22,4.008 2.795,4.478C2.372,4.949 1.912,5.326 1.418,5.611C0.877,5.923 0.396,6.077 -0.028,6.073C-0.452,6.071 -0.814,5.942 -1.113,5.688C-1.414,5.434 -1.645,5.068 -1.806,4.589C-1.967,4.11 -2.059,3.56 -2.081,2.937C-2.096,2.473 -2.104,1.969 -2.104,1.427C-2.104,0.884 -2.096,0.36 -2.081,-0.146C-2.066,-0.789 -1.976,-1.445 -1.812,-2.111C-1.646,-2.778 -1.416,-3.411 -1.119,-4.01C-0.823,-4.607 -0.461,-5.154 -0.034,-5.649C0.394,-6.144 0.877,-6.548 1.418,-6.86C1.912,-7.145 2.372,-7.298 2.795,-7.317C3.22,-7.337 3.589,-7.247 3.904,-7.048C4.219,-6.849 4.466,-6.541 4.646,-6.125C4.827,-5.71 4.92,-5.21 4.928,-4.625C4.928,-4.521 4.903,-4.417 4.854,-4.314C4.805,-4.211 4.748,-4.14 4.68,-4.101L3.207,-3.25C3.079,-3.177 2.993,-3.164 2.947,-3.213C2.902,-3.262 2.861,-3.368 2.824,-3.532C2.793,-3.653 2.751,-3.778 2.694,-3.907C2.638,-4.036 2.558,-4.137 2.453,-4.209C2.347,-4.281 2.212,-4.316 2.048,-4.313C1.882,-4.31 1.673,-4.236 1.418,-4.088C1.162,-3.941 0.948,-3.762 0.776,-3.553C0.604,-3.343 0.461,-3.114 0.349,-2.865C0.236,-2.615 0.154,-2.354 0.101,-2.081C0.049,-1.808 0.015,-1.534 0,-1.26" style="fill:rgb(250,250,250);fill-rule:nonzero;"/>
        </g>
        <g transform="matrix(1,0,0,1,270.354,342.904)">
            <path d="M0,10.636C-0.083,10.684 -0.154,10.678 -0.214,10.621C-0.274,10.563 -0.304,10.471 -0.304,10.344L-0.304,8.594C-0.304,8.467 -0.274,8.34 -0.214,8.213C-0.154,8.086 -0.083,7.998 0,7.95L6.392,4.261C6.474,4.213 6.545,4.218 6.605,4.276C6.666,4.334 6.695,4.426 6.695,4.553L6.695,6.303C6.695,6.43 6.666,6.557 6.605,6.684C6.545,6.811 6.474,6.898 6.392,6.946L0,10.636ZM0,6.375C-0.083,6.423 -0.154,6.417 -0.214,6.36C-0.274,6.302 -0.304,6.21 -0.304,6.082L-0.304,4.333C-0.304,4.206 -0.274,4.079 -0.214,3.952C-0.154,3.825 -0.083,3.738 0,3.69L6.392,0C6.474,-0.048 6.545,-0.043 6.605,0.015C6.666,0.073 6.695,0.165 6.695,0.292L6.695,2.041C6.695,2.169 6.666,2.295 6.605,2.423C6.545,2.55 6.474,2.637 6.392,2.685L0,6.375Z" style="fill:rgb(250,250,250);fill-rule:nonzero;"/>
        </g>
        <g transform="matrix(1,0,0,1,309.09,327.53)">
            <path d="M0,1.514L0,4.372C0,4.5 -0.03,4.627 -0.09,4.754C-0.15,4.881 -0.221,4.968 -0.304,5.016L-1.721,5.834C-1.804,5.882 -1.875,5.877 -1.935,5.819C-1.995,5.761 -2.025,5.669 -2.025,5.542L-2.025,2.683L-3.769,3.69C-3.851,3.737 -3.922,3.733 -3.982,3.675C-4.042,3.618 -4.072,3.525 -4.072,3.398L-4.072,1.648C-4.072,1.521 -4.042,1.395 -3.982,1.268C-3.922,1.14 -3.851,1.053 -3.769,1.006L-2.025,-0.001L-2.025,-2.859C-2.025,-2.986 -1.995,-3.113 -1.935,-3.24C-1.875,-3.367 -1.804,-3.454 -1.721,-3.502L-0.304,-4.32C-0.221,-4.368 -0.15,-4.363 -0.09,-4.306C-0.03,-4.247 0,-4.155 0,-4.028L0,-1.171L1.732,-2.171C1.815,-2.218 1.886,-2.213 1.946,-2.155C2.006,-2.097 2.037,-2.006 2.037,-1.879L2.037,-0.129C2.037,-0.002 2.006,0.125 1.946,0.252C1.886,0.379 1.815,0.466 1.732,0.514L0,1.514Z" style="fill:rgb(250,250,250);fill-rule:nonzero;"/>
        </g>
        <g transform="matrix(1,0,0,1,179.147,412.769)">
            <path d="M0,-275.912C-1.59,-273.182 -2.57,-270.102 -2.57,-267.322L-2.56,3.85C-2.56,6.54 -1.64,8.45 -0.15,9.39C-1.93,8.32 -14.73,0.92 -16.28,0.03C-17.84,-0.88 -18.81,-2.82 -18.81,-5.58L-18.81,-276.752C-18.81,-279.522 -17.84,-282.592 -16.27,-285.302L0,-275.912Z" style="fill:rgb(38,50,56);fill-rule:nonzero;"/>
        </g>
        <g transform="matrix(1,0,0,1,322.986,126.516)">
            <path d="M0,-72.647C0.03,-72.627 0.06,-72.607 0.09,-72.587C-1.48,-73.567 -3.69,-73.467 -6.15,-72.047L-137.75,3.93C-140.13,5.3 -142.28,7.65 -143.84,10.34L-160.11,0.95C-158.54,-1.76 -156.38,-4.12 -153.99,-5.5L-22.39,-81.477C-20.03,-82.847 -17.89,-82.987 -16.33,-82.127C-14.73,-81.237 -1.57,-73.567 0,-72.647" style="fill:rgb(69,90,100);fill-rule:nonzero;"/>
        </g>
        <g transform="matrix(1,0,0,1,312.687,172.923)">
            <path d="M0,-41.524L0,-41.514C-0.41,-40.834 -0.94,-40.244 -1.54,-39.904L-121.75,29.513C-122.95,30.203 -123.92,29.643 -123.92,28.263L-123.92,-27.991C-123.92,-29.371 -122.95,-31.051 -121.76,-31.741L-52.462,-71.727L0,-41.524Z" style="fill:rgb(69,90,100);fill-rule:nonzero;"/>
        </g>
        <g transform="matrix(1,0,0,1,313.317,129.46)">
            <path d="M0,-56.434L0,-0.19C0,0.5 -0.24,1.259 -0.63,1.94L-53.092,-28.264L-4.06,-56.594L-2.17,-57.684C-0.97,-58.374 0,-57.814 0,-56.434" style="fill:rgb(38,50,56);fill-rule:nonzero;"/>
        </g>
        <g transform="matrix(1,0,0,1,309.256,198.987)">
            <path d="M0,-126.121L0,-72.058C0,-70.678 -0.97,-68.997 -2.17,-68.308L-120.49,0L-120.49,-54.054C-120.49,-55.434 -119.52,-57.114 -118.33,-57.804L0,-126.121Z" style="fill:rgb(39,222,191);fill-rule:nonzero;"/>
        </g>
        <g transform="matrix(1,0,0,1,74.8238,19.8831)">
            <g opacity="0.25">
                <g transform="matrix(1,0,0,1,234.433,179.103)">
                    <path d="M0,-126.121L0,-72.058C0,-70.678 -0.97,-68.997 -2.17,-68.308L-120.49,0L-120.49,-54.054C-120.49,-55.434 -119.52,-57.114 -118.33,-57.804L0,-126.121Z" style="fill-rule:nonzero;"/>
                </g>
            </g>
        </g>
        <g transform="matrix(1,0,0,1,74.8238,19.8831)">
            <g opacity="0.5">
                <g transform="matrix(1,0,0,1,138.337,148.084)">
                    <path d="M0,-17.877C0,-18.773 -0.205,-19.42 -0.617,-19.817C-1.03,-20.214 -1.532,-20.241 -2.126,-19.898L-6.346,-17.462C-6.928,-17.126 -7.426,-16.522 -7.837,-15.649C-8.249,-14.776 -8.455,-13.892 -8.455,-12.995L-8.455,-9.747C-8.455,-8.851 -8.249,-8.204 -7.837,-7.807C-7.426,-7.411 -6.928,-7.381 -6.346,-7.717L-2.126,-10.153C-1.543,-10.49 -1.043,-11.096 -0.626,-11.971C-0.209,-12.846 0,-13.732 0,-14.629L0,-17.877ZM-2.126,2.84L-6.346,5.276C-7.51,5.948 -8.505,5.888 -9.329,5.095C-10.152,4.302 -10.564,3.009 -10.564,1.216C-10.564,0.775 -10.461,0.334 -10.252,-0.107C-10.043,-0.549 -9.793,-0.855 -9.502,-1.023C-9.211,-1.191 -8.964,-1.172 -8.76,-0.969C-8.557,-0.765 -8.455,-0.442 -8.455,-0.002C-8.455,0.894 -8.249,1.541 -7.837,1.937C-7.426,2.334 -6.928,2.364 -6.346,2.028L-2.126,-0.408C-1.543,-0.745 -1.043,-1.351 -0.626,-2.227C-0.209,-3.101 0,-3.987 0,-4.884L0,-9.021C-0.658,-8.048 -1.367,-7.343 -2.126,-6.905L-6.346,-4.469C-7.51,-3.797 -8.505,-3.856 -9.329,-4.65C-10.152,-5.443 -10.564,-6.736 -10.564,-8.529L-10.564,-11.777C-10.564,-13.57 -10.152,-15.34 -9.329,-17.085C-8.505,-18.829 -7.51,-20.038 -6.346,-20.71L-2.126,-23.147C-0.95,-23.825 0.05,-23.768 0.874,-22.975C1.698,-22.183 2.11,-20.888 2.11,-19.095L2.11,-6.102C2.11,-4.309 1.698,-2.54 0.874,-0.795C0.05,0.949 -0.95,2.161 -2.126,2.84" style="fill-rule:nonzero;"/>
                </g>
                <g transform="matrix(1,0,0,1,146.76,129.708)">
                    <path d="M0,-1.929C0,-1.708 0.053,-1.548 0.156,-1.448C0.262,-1.347 0.385,-1.339 0.527,-1.421L6.329,-4.771C7.494,-5.443 8.488,-5.383 9.313,-4.59C10.137,-3.797 10.55,-2.504 10.55,-0.711L10.55,2.538C10.55,4.331 10.137,6.1 9.313,7.844C8.488,9.589 7.494,10.798 6.329,11.47L2.11,13.906C0.945,14.579 -0.049,14.518 -0.874,13.726C-1.697,12.933 -2.109,11.639 -2.109,9.846C-2.109,9.389 -2.005,8.945 -1.797,8.51C-1.588,8.077 -1.338,7.776 -1.046,7.608C-0.755,7.44 -0.509,7.454 -0.305,7.649C-0.102,7.845 0,8.172 0,8.629C0,9.525 0.206,10.172 0.618,10.568C1.03,10.965 1.527,10.995 2.11,10.658L6.329,8.222C6.912,7.886 7.409,7.281 7.821,6.409C8.233,5.537 8.439,4.653 8.439,3.756L8.439,0.507C8.439,-0.389 8.233,-1.036 7.821,-1.432C7.409,-1.829 6.912,-1.859 6.329,-1.523L0,2.132C-0.583,2.468 -1.079,2.437 -1.491,2.041C-1.903,1.645 -2.109,0.998 -2.109,0.101L-2.109,-8.02C-2.109,-8.476 -2.008,-8.919 -1.805,-9.35C-1.602,-9.78 -1.352,-10.081 -1.055,-10.253L9.494,-16.343C9.78,-16.508 10.027,-16.493 10.235,-16.302C10.444,-16.109 10.55,-15.789 10.55,-15.341C10.55,-14.892 10.444,-14.451 10.235,-14.017C10.027,-13.584 9.78,-13.285 9.494,-13.12L0.527,-7.944C0.385,-7.861 0.262,-7.709 0.156,-7.488C0.053,-7.267 0,-7.037 0,-6.801L0,-1.929Z" style="fill-rule:nonzero;"/>
                </g>
                <g transform="matrix(1,0,0,1,169.968,130.623)">
                    <path d="M0,-21.927L-4.22,-19.491C-4.571,-19.288 -4.906,-18.959 -5.226,-18.504L2.109,-7.182L2.109,-19.896C2.109,-20.793 1.903,-21.439 1.491,-21.836C1.079,-22.233 0.582,-22.263 0,-21.927M-4.22,-0.001L0,-2.437C0.341,-2.634 0.675,-2.963 1.005,-3.424L-6.33,-14.745L-6.33,-2.031C-6.33,-1.134 -6.123,-0.488 -5.712,-0.092C-5.3,0.305 -4.803,0.336 -4.22,-0.001M0,0.811L-4.22,3.247C-5.385,3.92 -6.379,3.859 -7.203,3.067C-8.027,2.274 -8.439,0.98 -8.439,-0.813L-8.439,-13.806C-8.439,-15.599 -8.027,-17.369 -7.203,-19.113C-6.379,-20.858 -5.385,-22.067 -4.22,-22.739L0,-25.175C1.164,-25.847 2.159,-25.787 2.983,-24.994C3.807,-24.201 4.22,-22.907 4.22,-21.115L4.22,-8.121C4.22,-6.328 3.807,-4.559 2.983,-2.815C2.159,-1.07 1.164,0.139 0,0.811" style="fill-rule:nonzero;"/>
                </g>
                <g transform="matrix(1,0,0,1,185.775,103.122)">
                    <path d="M0,19.186L-6.329,22.84C-6.615,23.005 -6.862,22.992 -7.07,22.799C-7.279,22.607 -7.384,22.286 -7.384,21.838C-7.384,21.39 -7.279,20.945 -7.07,20.503C-6.862,20.061 -6.615,19.757 -6.329,19.592L-4.219,18.374L-4.219,2.133C-4.219,1.236 -4.422,0.592 -4.829,0.201C-5.235,-0.19 -5.725,-0.23 -6.296,0.083C-6.307,0.089 -6.318,0.096 -6.329,0.102C-6.625,0.273 -6.875,0.261 -7.078,0.066C-7.282,-0.13 -7.384,-0.451 -7.384,-0.9C-7.384,-1.349 -7.282,-1.792 -7.078,-2.231C-6.875,-2.669 -6.625,-2.975 -6.329,-3.146L-6.329,-3.121L-6.329,-3.146C-5.164,-3.819 -4.169,-3.758 -3.346,-2.965C-2.521,-2.173 -2.108,-0.878 -2.108,0.915L-2.108,17.156L0,15.938C0.297,15.767 0.548,15.783 0.751,15.987C0.953,16.191 1.056,16.517 1.056,16.965C1.056,17.414 0.951,17.855 0.742,18.288C0.534,18.722 0.286,19.021 0,19.186" style="fill-rule:nonzero;"/>
                </g>
                <g transform="matrix(1,0,0,1,199.505,113.569)">
                    <path d="M0,-21.927L-4.219,-19.491C-4.571,-19.288 -4.905,-18.959 -5.225,-18.504L2.11,-7.182L2.11,-19.896C2.11,-20.793 1.904,-21.439 1.492,-21.836C1.08,-22.233 0.583,-22.263 0,-21.927M-4.219,-0.001L0,-2.437C0.341,-2.634 0.676,-2.963 1.006,-3.424L-6.329,-14.745L-6.329,-2.031C-6.329,-1.134 -6.123,-0.488 -5.711,-0.092C-5.299,0.305 -4.802,0.336 -4.219,-0.001M0,0.811L-4.219,3.247C-5.384,3.92 -6.378,3.859 -7.203,3.067C-8.026,2.274 -8.438,0.98 -8.438,-0.813L-8.438,-13.806C-8.438,-15.599 -8.026,-17.369 -7.203,-19.113C-6.378,-20.858 -5.384,-22.067 -4.219,-22.739L0,-25.175C1.165,-25.847 2.159,-25.787 2.984,-24.994C3.808,-24.201 4.221,-22.907 4.221,-21.115L4.221,-8.121C4.221,-6.328 3.808,-4.559 2.984,-2.815C2.159,-1.07 1.165,0.139 0,0.811" style="fill-rule:nonzero;"/>
                </g>
                <g transform="matrix(1,0,0,1,220.29,77.7419)">
                    <path d="M0,24.156C-0.209,24.599 -0.459,24.903 -0.75,25.071C-1.041,25.239 -1.288,25.226 -1.492,25.03C-1.695,24.835 -1.797,24.509 -1.797,24.052L-1.797,15.043C-2.456,16.015 -3.159,16.717 -3.906,17.149L-8.126,19.585C-9.291,20.257 -10.285,20.198 -11.109,19.404C-11.934,18.611 -12.346,17.318 -12.346,15.525L-12.346,7.404C-12.346,6.964 -12.244,6.525 -12.041,6.086C-11.838,5.648 -11.59,5.344 -11.299,5.176C-11.008,5.008 -10.758,5.024 -10.549,5.225C-10.34,5.426 -10.236,5.746 -10.236,6.186L-10.236,14.307C-10.236,15.203 -10.029,15.85 -9.618,16.247C-9.206,16.643 -8.709,16.673 -8.126,16.337L-3.906,13.901C-3.324,13.564 -2.826,12.96 -2.415,12.088C-2.003,11.216 -1.797,10.331 -1.797,9.434L-1.797,1.313C-1.797,0.874 -1.695,0.434 -1.492,-0.004C-1.288,-0.443 -1.041,-0.747 -0.75,-0.915C-0.459,-1.083 -0.209,-1.066 0,-0.865C0.209,-0.665 0.313,-0.344 0.313,0.095L0.313,22.833C0.313,23.274 0.209,23.714 0,24.156" style="fill-rule:nonzero;"/>
                </g>
            </g>
        </g>
    </g>
    <g id="Addition-sign" transform="matrix(1,0,0,1,-100,-35)">
        <g transform="matrix(1,0,0,1,307.742,420.461)">
            <path d="M0,8.295C0,7.652 -0.38,7.112 -1.148,6.669L-6.82,3.393L-2.3,0.784C-1.534,0.34 -1.15,-0.198 -1.15,-0.84L-1.15,-14.155C-1.15,-14.798 -1.53,-15.338 -2.296,-15.781L-12.827,-21.86C-13.59,-22.301 -14.527,-22.52 -15.64,-22.52C-16.752,-22.52 -17.689,-22.301 -18.455,-21.858L-34.506,-12.592L-51.708,-22.522C-52.47,-22.963 -53.407,-23.183 -54.523,-23.185C-55.634,-23.183 -56.571,-22.963 -57.337,-22.52L-70.469,-14.939C-71.237,-14.496 -71.617,-13.955 -71.619,-13.314C-71.619,-13.31 -71.615,-13.308 -71.615,-13.304L-71.619,-13.304L-71.619,0.011L-71.615,0.011C-71.609,0.65 -71.233,1.188 -70.473,1.626L-64.803,4.9L-69.433,7.572C-70.189,8.009 -70.573,8.551 -70.577,9.19L-70.592,9.19L-70.592,22.504L-70.577,22.504C-70.577,22.507 -70.579,22.51 -70.579,22.513C-70.579,23.155 -70.193,23.692 -69.429,24.133L-58.898,30.212C-58.132,30.655 -57.202,30.878 -56.089,30.878C-54.976,30.878 -54.036,30.653 -53.275,30.214L-37.116,20.885L-19.913,30.817C-19.145,31.26 -18.208,31.48 -17.096,31.48C-15.983,31.48 -15.046,31.26 -14.278,30.817L-1.148,23.235C-0.399,22.803 -0.033,22.275 -0.014,21.652L0,21.652L0,8.338L-0.014,8.338C-0.014,8.322 0,8.311 0,8.295" style="fill:rgb(39,222,191);fill-rule:nonzero;"/>
        </g>
        <g transform="matrix(1,0,0,1,74.8238,19.8831)">
            <g opacity="0.25">
                <g transform="matrix(1,0,0,1,232.918,400.578)">
                    <path d="M0,8.295C0,7.652 -0.38,7.112 -1.148,6.669L-6.82,3.393L-2.3,0.784C-1.534,0.34 -1.15,-0.198 -1.15,-0.84L-1.15,-14.155C-1.15,-14.798 -1.53,-15.338 -2.296,-15.781L-12.827,-21.86C-13.59,-22.301 -14.527,-22.52 -15.64,-22.52C-16.752,-22.52 -17.689,-22.301 -18.455,-21.858L-34.506,-12.592L-51.708,-22.522C-52.47,-22.963 -53.407,-23.183 -54.523,-23.185C-55.634,-23.183 -56.571,-22.963 -57.337,-22.52L-70.469,-14.939C-71.237,-14.496 -71.617,-13.955 -71.619,-13.314C-71.619,-13.31 -71.615,-13.308 -71.615,-13.304L-71.619,-13.304L-71.619,0.011L-71.615,0.011C-71.609,0.65 -71.233,1.188 -70.473,1.626L-64.803,4.9L-69.433,7.572C-70.189,8.009 -70.573,8.551 -70.577,9.19L-70.592,9.19L-70.592,22.504L-70.577,22.504C-70.577,22.507 -70.579,22.51 -70.579,22.513C-70.579,23.155 -70.193,23.692 -69.429,24.133L-58.898,30.212C-58.132,30.655 -57.202,30.878 -56.089,30.878C-54.976,30.878 -54.036,30.653 -53.275,30.214L-37.116,20.885L-19.913,30.817C-19.145,31.26 -18.208,31.48 -17.096,31.48C-15.983,31.48 -15.046,31.26 -14.278,30.817L-1.148,23.235C-0.399,22.803 -0.033,22.275 -0.014,21.652L0,21.652L0,8.338L-0.014,8.338C-0.014,8.322 0,8.311 0,8.295" style="fill-rule:nonzero;"/>
                </g>
            </g>
        </g>
        <g transform="matrix(1,0,0,1,74.8238,19.8831)">
            <g opacity="0.25">
                <g transform="matrix(1,0,0,1,212.045,383.3)">
                    <path d="M0,21.425L15.358,21.425L14.053,20.671L18.573,18.062C19.339,17.618 19.723,17.08 19.723,16.438L19.723,3.123C19.723,2.48 19.343,1.94 18.577,1.497L15.983,0L0,0L0,21.425Z" style="fill-rule:nonzero;"/>
                </g>
            </g>
        </g>
        <g transform="matrix(1,0,0,1,74.8238,19.8831)">
            <g opacity="0.25">
                <g transform="matrix(1,0,0,1,215.848,408.148)">
                    <path d="M0,23.903C1.099,23.899 2.032,23.686 2.792,23.247L15.922,15.665C16.671,15.233 17.037,14.705 17.057,14.082L17.07,14.082L17.07,0.768L17.057,0.768C17.057,0.752 17.07,0.74 17.07,0.725C17.07,0.462 16.965,0.229 16.837,0L0,0L0,23.903Z" style="fill-rule:nonzero;"/>
                </g>
            </g>
        </g>
        <g transform="matrix(1,0,0,1,74.8238,19.8831)">
            <g opacity="0.25">
                <g transform="matrix(1,0,0,1,162.449,404.406)">
                    <path d="M0,-18.767C-0.768,-18.324 -1.148,-17.783 -1.15,-17.142C-1.15,-17.139 -1.146,-17.136 -1.146,-17.132L-1.15,-17.132L-1.15,-3.817L-1.146,-3.817C-1.141,-3.178 -0.764,-2.641 -0.004,-2.202L5.666,1.072L21.253,1.072L21.253,-19.839L1.857,-19.839L0,-18.767Z" style="fill-rule:nonzero;"/>
                </g>
            </g>
        </g>
        <g transform="matrix(1,0,0,1,74.8238,19.8831)">
            <g opacity="0.25">
                <g transform="matrix(1,0,0,1,176.904,408.147)">
                    <path d="M0,23.291C1.076,23.28 1.998,23.071 2.739,22.645L18.898,13.315L18.898,0L0,0L0,23.291Z" style="fill-rule:nonzero;"/>
                </g>
            </g>
        </g>
        <g transform="matrix(1,0,0,1,289.391,418.706)">
            <path d="M0,-1.509L17.204,8.424C17.971,8.867 18.351,9.408 18.351,10.05C18.351,10.693 17.971,11.234 17.204,11.677L4.072,19.258C3.305,19.701 2.368,19.92 1.255,19.92C0.143,19.92 -0.794,19.701 -1.561,19.258L-18.766,9.325L-34.925,18.655C-35.685,19.094 -36.625,19.319 -37.738,19.319C-38.851,19.319 -39.78,19.095 -40.547,18.653L-51.077,12.574C-51.84,12.133 -52.228,11.596 -52.228,10.953C-52.227,10.311 -51.84,9.766 -51.081,9.327L-34.921,-0.002L-52.122,-9.933C-52.885,-10.374 -53.266,-10.915 -53.269,-11.559C-53.266,-12.2 -52.885,-12.74 -52.119,-13.183L-38.986,-20.765C-38.219,-21.208 -37.283,-21.427 -36.173,-21.429C-35.057,-21.427 -34.12,-21.208 -33.356,-20.767L-16.156,-10.836L-0.105,-20.103C0.662,-20.546 1.599,-20.765 2.711,-20.765C3.825,-20.765 4.761,-20.546 5.524,-20.105L16.054,-14.026C16.821,-13.583 17.201,-13.043 17.201,-12.4C17.201,-11.757 16.817,-11.218 16.051,-10.776L0,-1.509Z" style="fill:rgb(39,222,191);fill-rule:nonzero;"/>
        </g>
    </g>
    <g id="Substraction-sign" transform="matrix(1,0,0,1,-100,-35)">
        <g transform="matrix(1,0,0,1,379.484,379.218)">
            <path d="M0,-1.571L4.52,-4.181C5.286,-4.624 5.67,-5.163 5.67,-5.805L5.67,-19.119C5.67,-19.762 5.29,-20.302 4.524,-20.745L-6.007,-26.825C-6.771,-27.265 -7.707,-27.485 -8.82,-27.485C-9.933,-27.485 -10.869,-27.265 -11.636,-26.823L-27.687,-17.556L-57.983,-0.065L-62.613,2.608C-63.369,3.045 -63.753,3.587 -63.757,4.225L-63.772,4.225L-63.772,17.54L-63.757,17.54C-63.757,17.543 -63.759,17.545 -63.759,17.548C-63.759,18.191 -63.373,18.728 -62.609,19.169L-52.078,25.248C-51.313,25.691 -50.382,25.914 -49.269,25.914C-48.156,25.914 -47.216,25.689 -46.455,25.25L-30.296,15.92L0,-1.571Z" style="fill:rgb(39,222,191);fill-rule:nonzero;"/>
        </g>
        <g transform="matrix(1,0,0,1,74.8238,19.8831)">
            <g opacity="0.25">
                <g transform="matrix(1,0,0,1,304.66,359.335)">
                    <path d="M0,-1.571L4.52,-4.181C5.286,-4.624 5.67,-5.163 5.67,-5.805L5.67,-19.119C5.67,-19.762 5.29,-20.302 4.524,-20.745L-6.007,-26.825C-6.771,-27.265 -7.707,-27.485 -8.82,-27.485C-9.933,-27.485 -10.869,-27.265 -11.636,-26.823L-27.687,-17.556L-57.983,-0.065L-62.613,2.608C-63.369,3.045 -63.753,3.587 -63.757,4.225L-63.772,4.225L-63.772,17.54L-63.757,17.54C-63.757,17.543 -63.759,17.545 -63.759,17.548C-63.759,18.191 -63.373,18.728 -62.609,19.169L-52.078,25.248C-51.313,25.691 -50.382,25.914 -49.269,25.914C-48.156,25.914 -47.216,25.689 -46.455,25.25L-30.296,15.92L0,-1.571Z" style="fill-rule:nonzero;"/>
                </g>
            </g>
        </g>
        <g transform="matrix(1,0,0,1,74.8238,19.8831)">
            <g opacity="0.25">
                <g transform="matrix(1,0,0,1,255.597,351.712)">
                    <path d="M0,17.559L0,33.489C1.009,33.458 1.904,33.28 2.607,32.873L18.767,23.544L49.063,6.053L53.583,3.443C54.349,3 54.733,2.461 54.733,1.819L54.733,-11.496C54.733,-12.138 54.353,-12.679 53.587,-13.122L48.724,-15.93L0,17.559Z" style="fill-rule:nonzero;"/>
                </g>
            </g>
        </g>
        <g transform="matrix(1,0,0,1,367.953,372.561)">
            <path d="M0,-1.571L-18.766,9.263L-34.925,18.593C-35.685,19.032 -36.625,19.257 -37.737,19.257C-38.851,19.257 -39.78,19.033 -40.548,18.591L-51.077,12.512C-51.84,12.071 -52.228,11.534 -52.228,10.891C-52.228,10.249 -51.84,9.704 -51.08,9.265L-34.921,-0.065L-16.155,-10.899L-0.105,-20.165C0.662,-20.608 1.599,-20.828 2.712,-20.828C3.824,-20.828 4.761,-20.608 5.524,-20.167L16.054,-14.088C16.821,-13.645 17.201,-13.105 17.201,-12.462C17.201,-11.82 16.817,-11.281 16.051,-10.838L0,-1.571Z" style="fill:rgb(39,222,191);fill-rule:nonzero;"/>
        </g>
    </g>
</svg>
